<svg width="109" height="36" viewBox="0 0 109 36" fill="none" xmlns="http://www.w3.org/2000/svg">
<path d="M104.231 36H5.26883C2.78347 36 0.75 33.975 0.75 31.5V4.5C0.75 2.025 2.78347 0 5.26883 0H104.231C106.717 0 108.75 2.025 108.75 4.5V31.5C108.75 33.975 106.717 36 104.231 36Z" fill="black"/>
<path d="M104.25 0.72C106.338 0.72 108.03 2.412 108.03 4.5V31.5C108.03 33.588 106.338 35.28 104.25 35.28L5.25 35.28C3.162 35.28 1.47 33.588 1.47 31.5V4.5C1.47 2.412 3.162 0.72 5.25 0.72L104.25 0.72ZM104.25 0H5.25C2.775 0 0.75 2.025 0.75 4.5V31.5C0.75 33.975 2.775 36 5.25 36L104.25 36C106.725 36 108.75 33.975 108.75 31.5V4.5C108.75 2.025 106.725 0 104.25 0Z" fill="#A6A6A6"/>
<path d="M23.1045 18.2706C23.1142 17.5194 23.3143 16.7829 23.6862 16.1295C24.0581 15.4761 24.5896 14.9272 25.2314 14.5337C24.8237 13.9531 24.2858 13.4752 23.6605 13.1381C23.0352 12.8011 22.3397 12.614 21.6293 12.5918C20.1137 12.4332 18.6444 13.4962 17.8721 13.4962C17.0849 13.4962 15.8958 12.6076 14.6154 12.6338C13.7871 12.6605 12.98 12.9007 12.2725 13.3309C11.565 13.7612 10.9814 14.3669 10.5784 15.0889C8.83296 18.1025 10.1349 22.5314 11.807 24.9674C12.6435 26.1602 13.6212 27.4926 14.9005 27.4454C16.1524 27.3936 16.6199 26.6493 18.131 26.6493C19.6281 26.6493 20.0667 27.4454 21.372 27.4153C22.7153 27.3936 23.5616 26.2172 24.3688 25.0131C24.9699 24.1632 25.4324 23.2238 25.7392 22.2298C24.9588 21.9007 24.2928 21.3497 23.8243 20.6457C23.3558 19.9416 23.1055 19.1156 23.1045 18.2706Z" fill="white"/>
<path d="M20.6392 10.9897C21.3716 10.1129 21.7324 8.98595 21.645 7.84814C20.5261 7.96534 19.4924 8.49865 18.7501 9.34179C18.3872 9.75369 18.1092 10.2329 17.9321 10.752C17.755 11.2711 17.6822 11.8199 17.7179 12.367C18.2776 12.3728 18.8313 12.2518 19.3373 12.0132C19.8433 11.7747 20.2884 11.4247 20.6392 10.9897Z" fill="white"/>
<path d="M38.9289 24.4254H34.6569L33.6309 27.4462H31.8215L35.8679 16.27H37.7478L41.7942 27.4462H39.9539L38.9289 24.4254ZM35.0993 23.0315H38.4856L36.8163 18.1289H36.7695L35.0993 23.0315Z" fill="white"/>
<path d="M50.5331 23.3726C50.5331 25.9047 49.174 27.5315 47.123 27.5315C46.6035 27.5586 46.0868 27.4393 45.6321 27.1872C45.1774 26.935 44.8031 26.5603 44.5521 26.1059H44.5133V30.1419H42.836V19.2979H44.4595V20.6532H44.4904C44.753 20.201 45.1336 19.8282 45.5917 19.5746C46.0499 19.3209 46.5684 19.1958 47.0922 19.2127C49.166 19.2127 50.5331 20.8475 50.5331 23.3726ZM48.8091 23.3726C48.8091 21.7229 47.9542 20.6383 46.6497 20.6383C45.3682 20.6383 44.5062 21.7457 44.5062 23.3726C44.5062 25.0144 45.3682 26.1139 46.6497 26.1139C47.9542 26.1139 48.8091 25.0372 48.8091 23.3726Z" fill="white"/>
<path d="M59.5266 23.3725C59.5266 25.9047 58.1675 27.5315 56.1166 27.5315C55.597 27.5586 55.0803 27.4393 54.6256 27.1872C54.1709 26.935 53.7966 26.5603 53.5456 26.1059H53.5068V30.1419H51.8295V19.2979H53.453V20.6532H53.4839C53.7465 20.201 54.1271 19.8282 54.5852 19.5746C55.0434 19.3209 55.5619 19.1958 56.0857 19.2127C58.1596 19.2127 59.5266 20.8474 59.5266 23.3725ZM57.8026 23.3725C57.8026 21.7228 56.9477 20.6383 55.6433 20.6383C54.3617 20.6383 53.4998 21.7457 53.4998 23.3725C53.4998 25.0143 54.3617 26.1139 55.6433 26.1139C56.9477 26.1139 57.8026 25.0372 57.8026 23.3725H57.8026Z" fill="white"/>
<path d="M65.4705 24.3323C65.5948 25.4406 66.6745 26.1683 68.1499 26.1683C69.5636 26.1683 70.5807 25.4406 70.5807 24.4413C70.5807 23.5738 69.9673 23.0544 68.5148 22.6984L67.0623 22.3495C65.0043 21.8538 64.0489 20.894 64.0489 19.3366C64.0489 17.4083 65.7341 16.0837 68.127 16.0837C70.4952 16.0837 72.1187 17.4083 72.1734 19.3366H70.4802C70.3789 18.2212 69.4543 17.548 68.1032 17.548C66.752 17.548 65.8275 18.2292 65.8275 19.2206C65.8275 20.0107 66.418 20.4756 67.8626 20.8316L69.0974 21.1339C71.3969 21.6762 72.3523 22.5973 72.3523 24.2321C72.3523 26.323 70.6821 27.6325 68.0256 27.6325C65.5401 27.6325 63.862 26.3537 63.7536 24.3322L65.4705 24.3323Z" fill="white"/>
<path d="M75.9721 17.3696V19.298H77.526V20.6225H75.9721V25.1145C75.9721 25.8124 76.2832 26.1376 76.9663 26.1376C77.1508 26.1344 77.3349 26.1215 77.518 26.0989V27.4155C77.2109 27.4727 76.8988 27.4986 76.5864 27.4928C74.9321 27.4928 74.2869 26.8732 74.2869 25.2929V20.6225H73.0988V19.298H74.2869V17.3696H75.9721Z" fill="white"/>
<path d="M78.4259 23.3726C78.4259 20.8088 79.9401 19.1978 82.3013 19.1978C84.6704 19.1978 86.1776 20.8088 86.1776 23.3726C86.1776 25.9434 84.6784 27.5474 82.3013 27.5474C79.9251 27.5474 78.4259 25.9434 78.4259 23.3726ZM84.4686 23.3726C84.4686 21.6139 83.6604 20.5759 82.3013 20.5759C80.9422 20.5759 80.1349 21.6218 80.1349 23.3726C80.1349 25.1383 80.9422 26.1684 82.3013 26.1684C83.6604 26.1684 84.4686 25.1383 84.4686 23.3726H84.4686Z" fill="white"/>
<path d="M87.5604 19.2979H89.1601V20.6848H89.1989C89.3072 20.2516 89.5616 19.8688 89.9196 19.6007C90.2775 19.3326 90.7171 19.1956 91.1644 19.2126C91.3577 19.2119 91.5504 19.2329 91.739 19.275V20.8395C91.495 20.7651 91.2405 20.731 90.9854 20.7384C90.7418 20.7285 90.4989 20.7714 90.2734 20.864C90.0479 20.9566 89.8452 21.0967 89.6791 21.2748C89.5131 21.4529 89.3876 21.6648 89.3114 21.8958C89.2353 22.1268 89.2101 22.3715 89.2377 22.6131V27.4462H87.5604L87.5604 19.2979Z" fill="white"/>
<path d="M99.4722 25.053C99.2465 26.5322 97.802 27.5474 95.9537 27.5474C93.5767 27.5474 92.1013 25.9592 92.1013 23.4112C92.1013 20.8554 93.5846 19.1978 95.8832 19.1978C98.1439 19.1978 99.5656 20.7464 99.5656 23.217V23.79H93.7944V23.8911C93.7677 24.191 93.8054 24.4931 93.9048 24.7773C94.0043 25.0616 94.1632 25.3215 94.3711 25.5398C94.579 25.7581 94.8311 25.9298 95.1107 26.0435C95.3902 26.1571 95.6908 26.2102 95.9925 26.1991C96.3889 26.2361 96.7866 26.1446 97.1266 25.9381C97.4666 25.7316 97.7307 25.4212 97.8795 25.053L99.4722 25.053ZM93.8023 22.6211H97.8875C97.9025 22.3515 97.8615 22.0816 97.7671 21.8285C97.6726 21.5754 97.5267 21.3446 97.3385 21.1504C97.1503 20.9562 96.9239 20.8029 96.6734 20.7001C96.423 20.5973 96.154 20.5472 95.8832 20.553C95.6101 20.5514 95.3393 20.6037 95.0866 20.707C94.8339 20.8103 94.6041 20.9624 94.4107 21.1547C94.2172 21.347 94.0638 21.5755 93.9594 21.8272C93.855 22.0789 93.8016 22.3487 93.8023 22.6211V22.6211Z" fill="white"/>
<path d="M34.8891 7.8579C35.2407 7.83274 35.5936 7.88571 35.9222 8.013C36.2508 8.14029 36.547 8.33872 36.7894 8.59399C37.0318 8.84925 37.2144 9.15498 37.324 9.48912C37.4335 9.82326 37.4674 10.1775 37.423 10.5263C37.423 12.2419 36.4932 13.2281 34.8891 13.2281H32.9439V7.8579H34.8891ZM33.7803 12.4686H34.7957C35.0469 12.4836 35.2984 12.4425 35.5317 12.3483C35.7651 12.2542 35.9744 12.1093 36.1445 11.9243C36.3147 11.7393 36.4413 11.5188 36.5151 11.2789C36.589 11.0389 36.6083 10.7855 36.5716 10.5372C36.6057 10.2899 36.5844 10.0381 36.5094 9.79986C36.4344 9.56166 36.3075 9.34296 36.1377 9.15942C35.968 8.97588 35.7596 8.83206 35.5276 8.73824C35.2956 8.64443 35.0456 8.60296 34.7957 8.61679H33.7803V12.4686Z" fill="white"/>
<path d="M38.3679 11.1999C38.3423 10.9336 38.3729 10.6649 38.4576 10.411C38.5423 10.1571 38.6792 9.92374 38.8597 9.72575C39.0402 9.52777 39.2601 9.36958 39.5055 9.26133C39.7508 9.15308 40.0161 9.09717 40.2844 9.09717C40.5527 9.09717 40.8181 9.15308 41.0634 9.26133C41.3088 9.36958 41.5287 9.52777 41.7092 9.72575C41.8896 9.92374 42.0266 10.1571 42.1113 10.411C42.196 10.6649 42.2265 10.9336 42.201 11.1999C42.227 11.4665 42.1968 11.7356 42.1124 11.9899C42.0279 12.2441 41.891 12.478 41.7105 12.6763C41.53 12.8747 41.3099 13.0332 41.0643 13.1417C40.8187 13.2502 40.5531 13.3062 40.2844 13.3062C40.0158 13.3062 39.7502 13.2502 39.5046 13.1417C39.259 13.0332 39.0389 12.8747 38.8584 12.6763C38.6779 12.478 38.541 12.2441 38.4565 11.9899C38.372 11.7356 38.3419 11.4665 38.3679 11.1999ZM41.376 11.1999C41.376 10.3214 40.9803 9.80773 40.2858 9.80773C39.5886 9.80773 39.1964 10.3214 39.1964 11.1999C39.1964 12.0854 39.5886 12.5952 40.2858 12.5952C40.9803 12.5952 41.376 12.0819 41.376 11.1999H41.376Z" fill="white"/>
<path d="M47.2962 13.2279H46.4642L45.6242 10.2432H45.5608L44.7243 13.2279H43.9003L42.78 9.17529H43.5935L44.3216 12.2677H44.3815L45.217 9.17529H45.9865L46.822 12.2677H46.8855L47.61 9.17529H48.412L47.2962 13.2279Z" fill="white"/>
<path d="M49.3542 9.17524H50.1263V9.81903H50.1862C50.2879 9.5878 50.4594 9.39397 50.6768 9.26454C50.8941 9.13512 51.1466 9.07655 51.399 9.09701C51.5967 9.08218 51.7953 9.11191 51.9799 9.184C52.1646 9.25609 52.3306 9.36868 52.4657 9.51344C52.6008 9.6582 52.7015 9.83141 52.7603 10.0203C52.8192 10.2091 52.8347 10.4087 52.8056 10.6043V13.2278H52.0036V10.8052C52.0036 10.1539 51.7198 9.83002 51.1266 9.83002C50.9924 9.82379 50.8584 9.84657 50.7338 9.89682C50.6091 9.94707 50.4969 10.0236 50.4047 10.1211C50.3126 10.2187 50.2426 10.3349 50.1998 10.462C50.1569 10.589 50.142 10.7237 50.1562 10.857V13.2279H49.3542L49.3542 9.17524Z" fill="white"/>
<path d="M54.0836 7.59326H54.8857V13.2279H54.0836V7.59326Z" fill="white"/>
<path d="M56.0006 11.2C55.9751 10.9336 56.0057 10.6649 56.0904 10.411C56.1751 10.1572 56.3121 9.92375 56.4925 9.72577C56.673 9.52778 56.893 9.36959 57.1384 9.26134C57.3837 9.15309 57.6491 9.09717 57.9174 9.09717C58.1857 9.09717 58.451 9.15309 58.6964 9.26134C58.9418 9.36959 59.1618 9.52778 59.3422 9.72577C59.5227 9.92375 59.6597 10.1572 59.7444 10.411C59.8291 10.6649 59.8597 10.9336 59.8341 11.2C59.8602 11.4666 59.8299 11.7357 59.7454 11.99C59.6609 12.2442 59.524 12.4781 59.3435 12.6764C59.163 12.8748 58.9429 13.0333 58.6973 13.1418C58.4517 13.2503 58.186 13.3063 57.9174 13.3063C57.6488 13.3063 57.3831 13.2503 57.1375 13.1418C56.8919 13.0333 56.6718 12.8748 56.4912 12.6764C56.3107 12.4781 56.1738 12.2442 56.0893 11.99C56.0048 11.7357 55.9746 11.4666 56.0006 11.2ZM59.0087 11.2C59.0087 10.3215 58.613 9.8078 57.9185 9.8078C57.2213 9.8078 56.8291 10.3215 56.8291 11.2C56.8291 12.0855 57.2213 12.5953 57.9185 12.5953C58.613 12.5952 59.0087 12.082 59.0087 11.2H59.0087Z" fill="white"/>
<path d="M60.6785 12.0819C60.6785 11.3524 61.2232 10.9319 62.1901 10.8721L63.2909 10.8088V10.459C63.2909 10.031 63.0071 9.7893 62.4589 9.7893C62.0112 9.7893 61.7009 9.95322 61.6119 10.2397H60.8354C60.9174 9.54365 61.574 9.09717 62.4959 9.09717C63.5148 9.09717 64.0895 9.60297 64.0895 10.459V13.228H63.3174V12.6585H63.2539C63.1251 12.8628 62.9442 13.0293 62.7298 13.1411C62.5153 13.2529 62.2749 13.3059 62.0332 13.2948C61.8626 13.3125 61.6902 13.2943 61.527 13.2415C61.3639 13.1887 61.2136 13.1023 61.086 12.9881C60.9584 12.8738 60.8562 12.7341 60.786 12.5781C60.7158 12.422 60.6792 12.253 60.6785 12.0819ZM63.2909 11.7356V11.3968L62.2985 11.4601C61.7388 11.4975 61.485 11.6873 61.485 12.0446C61.485 12.4093 61.8023 12.6216 62.2386 12.6216C62.3664 12.6345 62.4956 12.6216 62.6183 12.5837C62.7411 12.5458 62.8549 12.4837 62.9531 12.4011C63.0513 12.3184 63.1318 12.2169 63.1898 12.1026C63.2479 11.9883 63.2822 11.8635 63.2909 11.7356Z" fill="white"/>
<path d="M65.1436 11.1999C65.1436 9.9193 65.8037 9.10807 66.8305 9.10807C67.0845 9.0964 67.3366 9.15706 67.5572 9.28297C67.7779 9.40887 67.9581 9.59482 68.0768 9.81907H68.1367V7.59326H68.9387V13.2279H68.1702V12.5876H68.1067C67.9789 12.8104 67.7925 12.994 67.5675 13.1186C67.3425 13.2433 67.0877 13.3042 66.8305 13.2947C65.7967 13.2948 65.1436 12.4835 65.1436 11.1999ZM65.9721 11.1999C65.9721 12.0594 66.3784 12.5767 67.0579 12.5767C67.7339 12.5767 68.1517 12.052 68.1517 11.2034C68.1517 10.3588 67.7295 9.82658 67.0579 9.82658C66.3828 9.82658 65.972 10.3473 65.972 11.1999H65.9721Z" fill="white"/>
<path d="M72.2571 11.1999C72.2316 10.9336 72.2621 10.6649 72.3468 10.411C72.4315 10.1571 72.5685 9.92374 72.7489 9.72575C72.9294 9.52777 73.1493 9.36958 73.3947 9.26133C73.64 9.15308 73.9054 9.09717 74.1737 9.09717C74.442 9.09717 74.7073 9.15308 74.9526 9.26133C75.198 9.36958 75.4179 9.52777 75.5984 9.72575C75.7788 9.92374 75.9158 10.1571 76.0005 10.411C76.0852 10.6649 76.1158 10.9336 76.0902 11.1999C76.1162 11.4665 76.0861 11.7356 76.0016 11.9899C75.9171 12.2441 75.7802 12.478 75.5997 12.6763C75.4192 12.8747 75.1991 13.0332 74.9535 13.1417C74.7079 13.2502 74.4423 13.3062 74.1737 13.3062C73.905 13.3062 73.6394 13.2502 73.3938 13.1417C73.1482 13.0332 72.9281 12.8747 72.7476 12.6763C72.5671 12.478 72.4302 12.2441 72.3457 11.9899C72.2613 11.7356 72.2311 11.4665 72.2571 11.1999ZM75.2652 11.1999C75.2652 10.3214 74.8695 9.80773 74.175 9.80773C73.4778 9.80773 73.0856 10.3214 73.0856 11.1999C73.0856 12.0854 73.4778 12.5952 74.175 12.5952C74.8695 12.5952 75.2652 12.0819 75.2652 11.1999Z" fill="white"/>
<path d="M77.1664 9.17524H77.9385V9.81903H77.9984C78.1001 9.5878 78.2716 9.39397 78.489 9.26454C78.7064 9.13512 78.9588 9.07655 79.2112 9.09701C79.4089 9.08218 79.6075 9.11191 79.7921 9.184C79.9768 9.25609 80.1428 9.36868 80.2779 9.51344C80.413 9.6582 80.5137 9.83141 80.5726 10.0203C80.6314 10.2091 80.6469 10.4087 80.6179 10.6043V13.2278H79.8158V10.8052C79.8158 10.1539 79.532 9.83002 78.9388 9.83002C78.8046 9.82379 78.6706 9.84657 78.546 9.89682C78.4214 9.94707 78.3091 10.0236 78.217 10.1211C78.1248 10.2187 78.0548 10.3349 78.012 10.462C77.9691 10.589 77.9542 10.7237 77.9684 10.857V13.2279H77.1664V9.17524Z" fill="white"/>
<path d="M85.1499 8.16626V9.1937H86.0304V9.86739H85.1499V11.9513C85.1499 12.3758 85.3253 12.5617 85.7245 12.5617C85.8268 12.5613 85.9289 12.5552 86.0304 12.5432V13.2094C85.8863 13.2351 85.7404 13.2488 85.5941 13.2503C84.7021 13.2503 84.3469 12.9374 84.3469 12.156V9.86735H83.7018V9.19366H84.3469V8.16626H85.1499Z" fill="white"/>
<path d="M87.1259 7.59326H87.9209V9.82657H87.9844C88.091 9.59318 88.2672 9.39825 88.4889 9.26833C88.7107 9.13842 88.9672 9.07985 89.2235 9.10059C89.4202 9.08992 89.6169 9.12267 89.7994 9.1965C89.982 9.27034 90.146 9.38345 90.2797 9.52775C90.4133 9.67206 90.5134 9.844 90.5728 10.0313C90.6322 10.2186 90.6494 10.4167 90.6231 10.6114V13.2279H89.8203V10.8087C89.8203 10.1614 89.5179 9.83359 88.9513 9.83359C88.8134 9.82231 88.6748 9.84121 88.545 9.88896C88.4152 9.93671 88.2975 10.0122 88.2 10.11C88.1026 10.2079 88.0277 10.3258 87.9807 10.4555C87.9337 10.5852 87.9157 10.7236 87.928 10.861V13.2279H87.1259L87.1259 7.59326Z" fill="white"/>
<path d="M95.2998 12.1336C95.1908 12.504 94.9547 12.8244 94.6328 13.0387C94.3108 13.2531 93.9236 13.3477 93.5388 13.3061C93.271 13.3131 93.0049 13.262 92.759 13.1562C92.5131 13.0504 92.2931 12.8925 92.1145 12.6935C91.9359 12.4945 91.8029 12.2591 91.7246 12.0037C91.6464 11.7482 91.6248 11.4789 91.6614 11.2143C91.6258 10.9489 91.6477 10.6789 91.7258 10.4227C91.8038 10.1665 91.9362 9.93004 92.1139 9.72927C92.2915 9.52851 92.5104 9.36815 92.7556 9.25907C93.0009 9.14998 93.2667 9.09471 93.5352 9.09699C94.666 9.09699 95.3482 9.86739 95.3482 11.14V11.4191H92.4785V11.4639C92.4659 11.6126 92.4847 11.7623 92.5335 11.9034C92.5823 12.0445 92.6602 12.1738 92.7621 12.2831C92.864 12.3924 92.9877 12.4793 93.1252 12.5381C93.2628 12.597 93.4111 12.6265 93.5608 12.6249C93.7526 12.6479 93.947 12.6134 94.1192 12.5259C94.2914 12.4384 94.4335 12.3019 94.5277 12.1336L95.2998 12.1336ZM92.4784 10.8276H94.5312C94.5413 10.6915 94.5227 10.5549 94.4767 10.4265C94.4308 10.298 94.3583 10.1806 94.2641 10.0817C94.1699 9.98285 94.056 9.90473 93.9297 9.85237C93.8034 9.80001 93.6675 9.77458 93.5308 9.77771C93.3921 9.77597 93.2544 9.80194 93.1259 9.85409C92.9974 9.90624 92.8807 9.98351 92.7826 10.0814C92.6846 10.1792 92.6071 10.2956 92.5549 10.4238C92.5026 10.5519 92.4767 10.6892 92.4785 10.8276H92.4784Z" fill="white"/>
</svg>
