<svg width="64" height="64" viewBox="0 0 64 64" fill="none" xmlns="http://www.w3.org/2000/svg">
<path d="M50.4293 28.5714H35.4293C34.0653 28.5714 32.7572 28.0296 31.7927 27.0651C30.8282 26.1006 30.2864 24.7925 30.2864 23.4286V8.42857C30.2864 8.31491 30.2413 8.2059 30.1609 8.12553C30.0805 8.04515 29.9715 8 29.8578 8H20.0007C18.1821 8 16.4379 8.72245 15.152 10.0084C13.866 11.2944 13.1436 13.0385 13.1436 14.8571V49.1429C13.1436 50.9615 13.866 52.7056 15.152 53.9916C16.4379 55.2776 18.1821 56 20.0007 56H44.0007C45.8193 56 47.5635 55.2776 48.8494 53.9916C50.1354 52.7056 50.8578 50.9615 50.8578 49.1429V29C50.8578 28.8863 50.8127 28.7773 50.7323 28.697C50.6519 28.6166 50.5429 28.5714 50.4293 28.5714Z" fill="#4EAA18"/>
<path d="M49.4874 24.7777L34.0792 9.36944C34.0493 9.33966 34.0112 9.31939 33.9697 9.3112C33.9283 9.303 33.8853 9.30725 33.8463 9.32339C33.8072 9.33953 33.7738 9.36686 33.7503 9.40194C33.7267 9.43701 33.714 9.47826 33.7139 9.52051V23.4287C33.7139 23.8834 33.8945 24.3194 34.216 24.6409C34.5375 24.9624 34.9735 25.143 35.4282 25.143H49.3364C49.3786 25.1428 49.4199 25.1302 49.4549 25.1066C49.49 25.0831 49.5173 25.0497 49.5335 25.0106C49.5496 24.9716 49.5539 24.9286 49.5457 24.8872C49.5375 24.8457 49.5172 24.8076 49.4874 24.7777V24.7777Z" fill="#4EAA18"/>
<path d="M21.997 49.3488C21.2884 49.3488 20.6199 49.2288 19.9913 48.9888C19.3627 48.7374 18.8084 48.3717 18.3284 47.8917C17.8599 47.4117 17.4884 46.8174 17.2142 46.1088C16.9399 45.3888 16.8027 44.5603 16.8027 43.6231C16.8027 42.6974 16.9456 41.8745 17.2313 41.1545C17.517 40.4231 17.8999 39.806 18.3799 39.3031C18.8599 38.8003 19.4199 38.4174 20.0599 38.1545C20.6999 37.8917 21.3742 37.7603 22.0827 37.7603C22.8027 37.7603 23.4484 37.9088 24.0199 38.206C24.5913 38.4917 25.0656 38.8288 25.4427 39.2174L24.1056 40.8288C23.8199 40.566 23.517 40.3545 23.197 40.1945C22.8884 40.0231 22.5342 39.9374 22.1342 39.9374C21.757 39.9374 21.397 40.0231 21.0542 40.1945C20.7227 40.3545 20.4313 40.5888 20.1799 40.8974C19.9399 41.206 19.7456 41.5831 19.597 42.0288C19.4599 42.4745 19.3913 42.9774 19.3913 43.5374C19.3913 44.6917 19.637 45.5888 20.1284 46.2288C20.6199 46.8574 21.277 47.1717 22.0999 47.1717C22.557 47.1717 22.9627 47.0745 23.317 46.8803C23.6827 46.6745 24.0027 46.4231 24.277 46.126L25.6142 47.7031C24.677 48.8003 23.4713 49.3488 21.997 49.3488Z" fill="white"/>
<path d="M31.9521 49.3488C31.2206 49.3488 30.4892 49.2174 29.7578 48.9545C29.0378 48.6803 28.3921 48.2745 27.8206 47.7374L29.2606 46.006C29.6606 46.3488 30.1006 46.6288 30.5806 46.846C31.0721 47.0631 31.5521 47.1717 32.0206 47.1717C32.5463 47.1717 32.9349 47.0745 33.1863 46.8803C33.4492 46.686 33.5806 46.4231 33.5806 46.0917C33.5806 45.9203 33.5406 45.7717 33.4606 45.646C33.3921 45.5203 33.2835 45.4117 33.1349 45.3203C32.9978 45.2174 32.8263 45.126 32.6206 45.046C32.4263 44.9545 32.2092 44.8574 31.9692 44.7545L30.5121 44.1374C30.2263 44.0231 29.9463 43.8745 29.6721 43.6917C29.4092 43.5088 29.1692 43.2974 28.9521 43.0574C28.7463 42.806 28.5806 42.5203 28.4549 42.2003C28.3292 41.8688 28.2663 41.4974 28.2663 41.086C28.2663 40.6288 28.3635 40.2003 28.5578 39.8003C28.7521 39.3888 29.0263 39.0345 29.3806 38.7374C29.7349 38.4288 30.1521 38.1888 30.6321 38.0174C31.1235 37.846 31.6606 37.7603 32.2435 37.7603C32.8949 37.7603 33.5349 37.886 34.1635 38.1374C34.8035 38.3888 35.3635 38.7545 35.8435 39.2345L34.5578 40.8288C34.1921 40.5431 33.8263 40.326 33.4606 40.1774C33.0949 40.0174 32.6892 39.9374 32.2435 39.9374C31.8092 39.9374 31.4606 40.0288 31.1978 40.2117C30.9463 40.3831 30.8206 40.6288 30.8206 40.9488C30.8206 41.1203 30.8606 41.2688 30.9406 41.3945C31.0321 41.5088 31.1521 41.6174 31.3006 41.7203C31.4606 41.8117 31.6435 41.9031 31.8492 41.9945C32.0549 42.0745 32.2778 42.166 32.5178 42.2688L33.9578 42.8517C34.6435 43.126 35.1806 43.5031 35.5692 43.9831C35.9692 44.4631 36.1692 45.0974 36.1692 45.886C36.1692 46.3545 36.0721 46.8003 35.8778 47.2231C35.6949 47.6345 35.4206 48.0003 35.0549 48.3203C34.7006 48.6288 34.2606 48.8803 33.7349 49.0745C33.2092 49.2574 32.6149 49.3488 31.9521 49.3488Z" fill="white"/>
<path d="M41.7177 49.1431L38.3406 37.966H41.0149L42.352 43.1774C42.5234 43.7945 42.672 44.3945 42.7977 44.9774C42.9349 45.5488 43.0892 46.1431 43.2606 46.7603H43.3292C43.4892 46.1431 43.6377 45.5488 43.7749 44.9774C43.912 44.3945 44.0606 43.7945 44.2206 43.1774L45.5406 37.966H48.112L44.752 49.1431H41.7177Z" fill="white"/>
</svg>
