<svg width="143" height="20" viewBox="0 0 143 20" fill="none" xmlns="http://www.w3.org/2000/svg">
<g clip-path="url(#clip0_4494_22633)">
<mask id="mask0_4494_22633" style="mask-type:alpha" maskUnits="userSpaceOnUse" x="0" y="0" width="143" height="20">
<path d="M0.272705 19.886H143V0H0.272705V19.886Z" fill="#EEEEEE"/>
</mask>
<g mask="url(#mask0_4494_22633)">
<path d="M34.6119 1.172V2.566H37.5174V3.61H34.6119V5.82H33.3967V0.127H37.8661V1.172H34.6119ZM29.1475 4.86C29.6908 4.86 30.1465 4.681 30.5136 4.324C30.8887 3.968 31.0763 3.518 31.0763 2.982C31.082 2.73099 31.035 2.48151 30.9382 2.24909C30.8414 2.01667 30.6968 1.80628 30.5136 1.631C30.1465 1.266 29.6908 1.087 29.1475 1.087C28.8924 1.08182 28.6388 1.1273 28.4021 1.22071C28.1654 1.31413 27.9504 1.45354 27.77 1.63056C27.5896 1.80758 27.4476 2.01856 27.3525 2.25081C27.2574 2.48306 27.2111 2.73177 27.2166 2.982C27.2166 3.518 27.4031 3.968 27.7691 4.324C28.1453 4.681 28.601 4.86 29.1464 4.86H29.1475ZM31.3801 5.09C30.7725 5.659 30.0303 5.948 29.1475 5.948C28.2605 5.948 27.5193 5.659 26.9026 5.089C26.6097 4.81925 26.3775 4.49252 26.2207 4.12972C26.064 3.76691 25.9861 3.376 25.9922 2.982C25.9922 2.149 26.296 1.444 26.9026 0.867C27.5193 0.289 28.2615 0 29.1464 0C30.0303 0 30.7725 0.29 31.3801 0.867C31.677 1.13591 31.9124 1.46338 32.0711 1.82789C32.2298 2.19241 32.308 2.58572 32.3007 2.982C32.3007 3.806 31.9969 4.512 31.3801 5.089V5.09ZM23.1091 1.171H21.117V5.82H19.9008V1.172H17.9087V0.127H23.1091V1.172V1.171ZM13.4597 2.684H15.1133C15.676 2.684 16.0512 2.378 16.0512 1.927C16.0512 1.477 15.676 1.171 15.1133 1.171H13.4597V2.684ZM17.5529 5.82H16.0696L14.0938 3.73H13.4597V5.82H12.2445V0.127H15.1133C15.7556 0.127 16.2755 0.297 16.668 0.628C17.0615 0.96 17.2573 1.393 17.2573 1.928C17.2573 2.88 16.5885 3.56 15.5415 3.704L17.5529 5.82ZM9.21049 3.56L8.34393 1.53L7.4682 3.56H9.21049ZM11.4982 5.82H10.1851L9.66518 4.605H7.02167L6.49358 5.82H5.18049L7.77099 0.127H8.90771L11.4972 5.82H11.4982ZM1.48793 2.914H3.06098C3.7053 2.914 4.07027 2.574 4.07027 2.039C4.07027 1.521 3.7053 1.172 3.06098 1.172H1.48793V2.914ZM0.272705 0.127H3.06098C3.74098 0.127 4.27621 0.306 4.6789 0.654C5.08058 1.002 5.27734 1.461 5.27734 2.039C5.27734 3.203 4.42913 3.959 3.06098 3.959H1.48793V5.82H0.272705V0.127ZM106.937 12.743C106.937 12.002 106.312 11.503 105.381 11.503H102.569V13.983H105.381C106.312 13.983 106.937 13.485 106.937 12.743ZM108.172 15.091C107.798 15.402 107.363 15.635 106.894 15.776L109.718 19.662H106.889L104.261 15.992H102.569V19.662H100.253V9.493H105.381C106.523 9.493 107.462 9.797 108.174 10.396C108.881 10.992 109.239 11.782 109.239 12.743C109.239 13.704 108.881 14.493 108.174 15.091H108.172ZM18.1442 12.743C18.1442 12.002 17.5193 11.503 16.5885 11.503H13.7778V13.983H16.5885C17.5193 13.983 18.1442 13.485 18.1442 12.743ZM19.3798 15.091C19.0056 15.4017 18.5711 15.6348 18.1024 15.776L20.9243 19.662H18.0963L15.4691 15.992H13.7767V19.662H11.4595V9.493H16.5875C17.7293 9.493 18.6682 9.797 19.3788 10.396C20.0863 10.992 20.4462 11.782 20.4462 12.743C20.4462 13.704 20.0863 14.493 19.3788 15.091H19.3798ZM140.698 12.937C140.698 12.052 140.054 11.502 139.016 11.502H136.3V14.386H139.016C140.069 14.386 140.698 13.845 140.698 12.936V12.937ZM141.918 10.441C142.645 11.071 142.999 11.888 142.999 12.937C142.999 15.037 141.436 16.396 139.016 16.396H136.3V19.662H133.984V9.493H139.016C140.216 9.493 141.192 9.812 141.918 10.441ZM98.7392 13.976L98.7443 14.056C98.7586 14.271 98.7668 14.456 98.7668 14.607C98.7668 15.053 98.7158 15.497 98.6138 15.931C98.4029 16.861 97.9242 17.7121 97.2345 18.383C96.217 19.38 94.907 19.886 93.3401 19.886C91.764 19.886 90.407 19.371 89.306 18.355C88.2151 17.348 87.6626 16.077 87.6626 14.578C87.6626 13.094 88.2101 11.828 89.2897 10.817C90.3703 9.791 91.712 9.27 93.2769 9.27C94.4697 9.27 95.5065 9.528 96.4474 10.058C97.107 10.43 97.6341 10.927 98.0154 11.534L98.0603 11.605L96.1783 12.8L96.1273 12.727C95.4881 11.803 94.5563 11.354 93.2769 11.354C92.3563 11.354 91.5764 11.665 90.9586 12.281C90.3204 12.917 90.0105 13.668 90.0105 14.578C90.0105 15.494 90.3397 16.271 90.9892 16.888C91.6457 17.513 92.4358 17.818 93.4023 17.818C94.7673 17.818 95.847 17.14 96.3159 15.999H93.1229V13.976H98.7392ZM54.7313 13.976L54.7364 14.057C54.7517 14.274 54.7589 14.46 54.7589 14.607C54.7589 15.053 54.7079 15.497 54.6069 15.931C54.3957 16.8609 53.917 17.7119 53.2276 18.383C52.2091 19.38 50.8991 19.886 49.3332 19.886C47.756 19.886 46.3991 19.371 45.2991 18.355C44.2082 17.348 43.6547 16.077 43.6547 14.578C43.6547 13.094 44.2031 11.828 45.2828 10.817C46.3634 9.791 47.703 9.27 49.2689 9.27C50.4617 9.27 51.4996 9.528 52.4395 10.058C53.0802 10.413 53.6195 10.9207 54.0075 11.534L54.0523 11.605L52.1704 12.8L52.1194 12.727C51.4802 11.803 50.5494 11.354 49.27 11.354C48.3484 11.354 47.5685 11.665 46.9506 12.281C46.3135 12.917 46.0035 13.668 46.0035 14.578C46.0035 15.494 46.3328 16.271 46.9802 16.888C47.6378 17.513 48.4279 17.818 49.3954 17.818C50.7594 17.818 51.8401 17.14 52.309 15.999H49.116V13.976H54.7323H54.7313ZM129.855 15.1V9.493H132.171V15.1C132.171 16.523 131.746 17.688 130.907 18.56C130.051 19.452 128.956 19.886 127.561 19.886C126.149 19.886 124.998 19.44 124.136 18.56C123.276 17.682 122.841 16.518 122.841 15.1V9.493H125.158V15.1C125.158 16.724 126.101 17.772 127.561 17.772C128.954 17.772 129.855 16.724 129.855 15.1ZM119.173 14.592C119.173 13.681 118.85 12.904 118.21 12.282C117.583 11.657 116.82 11.353 115.876 11.353C114.936 11.353 114.166 11.657 113.525 12.281C112.897 12.907 112.577 13.686 112.577 14.592C112.577 15.505 112.897 16.277 113.525 16.889C114.171 17.503 114.941 17.803 115.876 17.803C116.802 17.803 117.588 17.495 118.21 16.889C118.85 16.282 119.173 15.509 119.173 14.592ZM115.876 9.27C117.442 9.27 118.783 9.79 119.862 10.817C120.953 11.839 121.505 13.109 121.505 14.592C121.505 16.067 120.953 17.332 119.862 18.354C118.777 19.371 117.435 19.886 115.876 19.886C114.32 19.886 112.974 19.371 111.874 18.355C110.793 17.326 110.245 16.062 110.245 14.592C110.245 13.114 110.793 11.844 111.873 10.817C112.983 9.775 114.293 9.27 115.876 9.27ZM81.2602 9.493L81.2694 9.572L82.3134 19.662H80.0593L79.466 14.463L77.063 19.663H75.6715L73.2522 14.463L72.6609 19.663H70.4058L71.4579 9.493H73.4714L73.4938 9.548L76.3606 16.256L79.2661 9.493H81.2613H81.2602ZM63.0279 15.56V17.653H68.8797V19.663H60.7106V9.492H68.8491V11.502H63.0279V13.579H68.1416V15.559H63.0279V15.56ZM56.2687 19.662H58.585V9.493H56.2677V19.663L56.2687 19.662ZM28.5327 15.52L27.1462 12.273L25.7454 15.52H28.5327ZM28.1963 9.493L28.2187 9.545L32.8247 19.662H30.3168L29.4074 17.529H24.886L23.9603 19.662H21.4524L26.0819 9.493H28.1953H28.1963ZM39.8897 15.1V9.493H42.206V15.1C42.206 16.524 41.7809 17.688 40.9428 18.56C40.0844 19.452 38.9905 19.886 37.5959 19.886C36.1839 19.886 35.0319 19.44 34.1704 18.56C33.311 17.683 32.8757 16.519 32.8757 15.1V9.493H35.193V15.1C35.193 16.724 36.135 17.772 37.5959 17.772C38.9895 17.772 39.8897 16.724 39.8897 15.1ZM7.772 14.578C7.772 13.63 7.458 12.9 6.81369 12.345C6.17142 11.778 5.32933 11.502 4.2395 11.502H2.58795V17.653H4.2395C5.30792 17.653 6.17448 17.375 6.81369 16.824C7.458 16.256 7.772 15.521 7.772 14.578ZM4.24052 9.493C5.99709 9.493 7.42742 9.968 8.49176 10.905C9.56221 11.831 10.1066 13.067 10.1066 14.578C10.1066 16.083 9.56323 17.324 8.49074 18.266C7.42232 19.193 5.99199 19.662 4.2395 19.662H0.272705V9.493H4.24052Z" fill="#5C6369"/>
</g>
</g>
<defs>
<clipPath id="clip0_4494_22633">
<rect width="142.727" height="20" fill="white" transform="translate(0.272705)"/>
</clipPath>
</defs>
</svg>
