<svg width="64" height="64" viewBox="0 0 64 64" fill="none" xmlns="http://www.w3.org/2000/svg">
<path d="M10.6973 51H53.3034C55.5292 51 57.3337 49.1956 57.3337 46.9697V17.0303C57.3337 14.8044 55.5292 13 53.3034 13H10.6973C8.47142 13 6.66699 14.8044 6.66699 17.0303V46.9697C6.66699 49.1956 8.47142 51 10.6973 51Z" fill="#E0E0E0"/>
<path d="M34.3034 51H53.3034C55.5292 51 57.3337 49.1956 57.3337 46.9697V17.0303C57.3337 14.8044 55.5292 13 53.3034 13H10.6973C8.47142 13 6.66699 14.8044 6.66699 17.0303L34.3034 51Z" fill="#D9D9D9"/>
<path d="M12.1309 50.9999H53.3033C55.5292 50.9999 57.3336 49.1955 57.3336 46.9696V17.606L12.1309 50.9999Z" fill="#EEEEEE"/>
<path d="M34.0102 50.9999H53.3038C55.5297 50.9999 57.3341 49.1955 57.3341 46.9696V17.606L25.9795 40.7698L34.0102 50.9999Z" fill="#E0E0E0"/>
<path d="M53.3034 15.3029H10.6973C8.47142 15.3029 6.66699 14.8043 6.66699 17.0301V46.9695C6.66699 49.1954 8.47142 50.9998 10.6973 50.9998H12.4246V18.1816H51.5761V50.9998H53.3034C55.5292 50.9998 57.3337 49.1954 57.3337 46.9695V17.0301C57.3337 14.8043 55.5292 15.3029 53.3034 15.3029Z" fill="#CA3737"/>
<path d="M53.3034 13H32.0003H10.6973C8.47142 13 6.66699 14.7687 6.66699 17.0303C6.66699 18.419 8.41499 19.6304 8.41499 19.6304L32.0003 36.3251L55.5857 19.6316C55.5857 19.6316 57.3337 18.419 57.3337 17.0315C57.3337 14.7687 55.5292 13 53.3034 13Z" fill="#F5F5F5"/>
<path d="M54.1624 13.0945L32.0003 28.5455L9.83826 13.0945C8.02578 13.4825 6.66699 15.0693 6.66699 17.0304C6.66699 18.4191 8.41499 19.6305 8.41499 19.6305L32.0003 36.3252L55.5857 19.6316C55.5857 19.6316 57.3337 18.4191 57.3337 17.0315C57.3337 15.0693 55.9749 13.4825 54.1624 13.0945Z" fill="#E84F4B"/>
</svg>
