<svg width="122" height="36" viewBox="0 0 122 36" fill="none" xmlns="http://www.w3.org/2000/svg">
<path d="M117.25 36H4.75C2.275 36 0.25 33.975 0.25 31.5V4.5C0.25 2.025 2.275 0 4.75 0H117.25C119.725 0 121.75 2.025 121.75 4.5V31.5C121.75 33.975 119.725 36 117.25 36Z" fill="black"/>
<path d="M117.25 0.72C119.338 0.72 121.03 2.412 121.03 4.5V31.5C121.03 33.588 119.338 35.28 117.25 35.28H4.75C2.662 35.28 0.97 33.588 0.97 31.5V4.5C0.97 2.412 2.662 0.72 4.75 0.72H117.25ZM117.25 0H4.75C2.275 0 0.25 2.025 0.25 4.5V31.5C0.25 33.975 2.275 36 4.75 36H117.25C119.725 36 121.75 33.975 121.75 31.5V4.5C121.75 2.025 119.725 0 117.25 0Z" fill="#A6A6A6"/>
<path d="M42.9281 9.21611C42.9281 9.97211 42.7031 10.5751 42.2531 11.0161C41.7491 11.5471 41.0831 11.8171 40.2731 11.8171C39.4901 11.8171 38.8331 11.5471 38.2841 11.0071C37.7351 10.4671 37.4651 9.79211 37.4651 9.00011C37.4651 8.19911 37.7351 7.53311 38.2841 6.99311C38.8331 6.45311 39.4901 6.18311 40.2731 6.18311C40.6601 6.18311 41.0291 6.25511 41.3801 6.40811C41.7311 6.56111 42.0101 6.75911 42.2261 7.01111L41.7491 7.48811C41.3891 7.06511 40.9031 6.84911 40.2731 6.84911C39.7061 6.84911 39.2111 7.04711 38.7971 7.45211C38.3831 7.84811 38.1761 8.37011 38.1761 9.00911C38.1761 9.64811 38.3831 10.1701 38.7971 10.5661C39.2111 10.9621 39.7061 11.1691 40.2731 11.1691C40.8761 11.1691 41.3801 10.9711 41.7851 10.5661C42.0461 10.3051 42.1991 9.93611 42.2351 9.46811H40.2731V8.81111H42.8921C42.9101 8.95511 42.9281 9.09011 42.9281 9.21611Z" fill="white" stroke="white" stroke-width="0.2" stroke-miterlimit="10"/>
<path d="M47.0771 6.96605H44.6201V8.67605H46.8341V9.32405H44.6201V11.034H47.0771V11.7H43.9271V6.30005H47.0771V6.96605Z" fill="white" stroke="white" stroke-width="0.2" stroke-miterlimit="10"/>
<path d="M50.0021 11.7H49.3091V6.96605H47.7971V6.30005H51.5051V6.96605H49.9931V11.7H50.0021Z" fill="white" stroke="white" stroke-width="0.2" stroke-miterlimit="10"/>
<path d="M54.1961 11.7V6.30005H54.8891V11.7H54.1961Z" fill="white" stroke="white" stroke-width="0.2" stroke-miterlimit="10"/>
<path d="M57.9671 11.7H57.2741V6.96605H55.7621V6.30005H59.4701V6.96605H57.9581V11.7H57.9671Z" fill="white" stroke="white" stroke-width="0.2" stroke-miterlimit="10"/>
<path d="M66.4991 10.9981C65.9681 11.5471 65.3111 11.8171 64.5191 11.8171C63.7271 11.8171 63.0701 11.5471 62.5391 10.9981C62.0081 10.4491 61.7471 9.78311 61.7471 9.00011C61.7471 8.21711 62.0081 7.54211 62.5391 7.00211C63.0701 6.45311 63.7271 6.18311 64.5191 6.18311C65.3021 6.18311 65.9591 6.45311 66.4991 7.00211C67.0301 7.55111 67.3001 8.21711 67.3001 9.00011C67.2911 9.79211 67.0301 10.4581 66.4991 10.9981ZM63.0521 10.5481C63.4481 10.9531 63.9431 11.1511 64.5191 11.1511C65.0951 11.1511 65.5901 10.9531 65.9861 10.5481C66.3821 10.1431 66.5891 9.63011 66.5891 9.00011C66.5891 8.37011 66.3911 7.85711 65.9861 7.45211C65.5901 7.04711 65.0951 6.84011 64.5191 6.84011C63.9431 6.84011 63.4481 7.03811 63.0521 7.44311C62.6561 7.85711 62.4491 8.37011 62.4491 9.00011C62.4491 9.63011 62.6561 10.1431 63.0521 10.5481Z" fill="white" stroke="white" stroke-width="0.2" stroke-miterlimit="10"/>
<path d="M68.2721 11.7V6.30005H69.1181L71.7461 10.503H71.7731L71.7461 9.45905V6.30005H72.4391V11.7H71.7191L68.9741 7.29905H68.9471L68.9741 8.34305V11.7H68.2721Z" fill="white" stroke="white" stroke-width="0.2" stroke-miterlimit="10"/>
<path d="M61.576 19.575C59.461 19.575 57.733 21.186 57.733 23.4C57.733 25.605 59.461 27.225 61.576 27.225C63.691 27.225 65.419 25.605 65.419 23.4C65.419 21.186 63.691 19.575 61.576 19.575ZM61.576 25.722C60.415 25.722 59.416 24.768 59.416 23.4C59.416 22.023 60.415 21.078 61.576 21.078C62.737 21.078 63.736 22.023 63.736 23.4C63.736 24.768 62.728 25.722 61.576 25.722ZM53.188 19.575C51.073 19.575 49.345 21.186 49.345 23.4C49.345 25.605 51.073 27.225 53.188 27.225C55.303 27.225 57.031 25.605 57.031 23.4C57.031 21.186 55.303 19.575 53.188 19.575ZM53.188 25.722C52.027 25.722 51.028 24.768 51.028 23.4C51.028 22.023 52.027 21.078 53.188 21.078C54.349 21.078 55.348 22.023 55.348 23.4C55.348 24.768 54.349 25.722 53.188 25.722ZM43.216 20.754V22.374H47.104C46.987 23.283 46.681 23.958 46.222 24.417C45.655 24.984 44.773 25.605 43.225 25.605C40.831 25.605 38.959 23.679 38.959 21.285C38.959 18.891 40.831 16.965 43.225 16.965C44.512 16.965 45.457 17.469 46.15 18.126L47.293 16.983C46.321 16.056 45.034 15.345 43.216 15.345C39.94 15.345 37.186 18.009 37.186 21.294C37.186 24.57 39.94 27.243 43.216 27.243C44.989 27.243 46.321 26.667 47.365 25.578C48.436 24.507 48.769 22.995 48.769 21.78C48.769 21.402 48.742 21.051 48.679 20.763H43.216V20.754ZM83.995 22.014C83.68 21.159 82.708 19.575 80.719 19.575C78.748 19.575 77.11 21.123 77.11 23.4C77.11 25.542 78.73 27.225 80.908 27.225C82.663 27.225 83.68 26.154 84.094 25.533L82.789 24.66C82.357 25.299 81.763 25.722 80.908 25.722C80.053 25.722 79.441 25.326 79.054 24.561L84.175 22.446L83.995 22.014ZM78.775 23.292C78.73 21.816 79.918 21.06 80.773 21.06C81.439 21.06 82.006 21.393 82.195 21.87L78.775 23.292ZM74.617 27H76.3V15.75H74.617V27ZM71.863 20.43H71.8C71.422 19.98 70.702 19.575 69.784 19.575C67.867 19.575 66.112 21.258 66.112 23.418C66.112 25.56 67.867 27.234 69.784 27.234C70.693 27.234 71.422 26.829 71.8 26.361H71.854V26.91C71.854 28.377 71.071 29.16 69.811 29.16C68.785 29.16 68.146 28.422 67.885 27.801L66.418 28.413C66.841 29.43 67.957 30.672 69.811 30.672C71.782 30.672 73.447 29.511 73.447 26.685V19.809H71.854V20.43H71.863ZM69.928 25.722C68.767 25.722 67.795 24.75 67.795 23.418C67.795 22.068 68.767 21.087 69.928 21.087C71.071 21.087 71.971 22.077 71.971 23.418C71.98 24.75 71.08 25.722 69.928 25.722ZM91.879 15.75H87.856V27H89.539V22.734H91.888C93.751 22.734 95.578 21.384 95.578 19.242C95.578 17.1 93.733 15.75 91.879 15.75ZM91.915 21.168H89.53V17.307H91.915C93.175 17.307 93.886 18.351 93.886 19.233C93.886 20.115 93.175 21.168 91.915 21.168ZM102.301 19.557C101.086 19.557 99.826 20.097 99.304 21.276L100.798 21.897C101.113 21.276 101.707 21.069 102.328 21.069C103.201 21.069 104.083 21.591 104.092 22.518V22.635C103.786 22.464 103.138 22.203 102.337 22.203C100.726 22.203 99.097 23.085 99.097 24.732C99.097 26.235 100.411 27.207 101.887 27.207C103.012 27.207 103.642 26.703 104.029 26.109H104.083V26.982H105.703V22.671C105.712 20.673 104.218 19.557 102.301 19.557ZM102.094 25.722C101.545 25.722 100.78 25.443 100.78 24.768C100.78 23.904 101.734 23.571 102.562 23.571C103.3 23.571 103.651 23.733 104.092 23.949C103.966 24.984 103.066 25.722 102.094 25.722ZM111.616 19.8L109.69 24.678H109.636L107.638 19.8H105.829L108.826 26.622L107.116 30.411H108.871L113.488 19.8H111.616ZM96.496 27H98.179V15.75H96.496V27Z" fill="white"/>
<path d="M9.64593 6.7859C9.38493 7.0649 9.23193 7.4969 9.23193 8.0459V27.9539C9.23193 28.5119 9.38493 28.9439 9.64593 29.2139L9.70893 29.2769L20.8599 18.1349V17.9999V17.8649L9.70893 6.7229L9.64593 6.7859Z" fill="url(#paint0_linear_4494_22536)"/>
<path d="M24.577 21.8519L20.86 18.1349V17.9999V17.8649L24.577 14.1479L24.658 14.1929L29.059 16.6949C30.319 17.4059 30.319 18.5759 29.059 19.2959L24.658 21.7979L24.577 21.8519Z" fill="url(#paint1_linear_4494_22536)"/>
<path d="M24.6579 21.807L20.8599 18L9.64594 29.214C10.0599 29.655 10.7439 29.709 11.5179 29.268L24.6579 21.807Z" fill="url(#paint2_linear_4494_22536)"/>
<path d="M24.658 14.202L11.509 6.73199C10.735 6.29099 10.051 6.34499 9.63696 6.78599L20.86 18L24.658 14.202Z" fill="url(#paint3_linear_4494_22536)"/>
<path opacity="0.2" d="M24.5769 21.717L11.5089 29.142C10.7799 29.556 10.1229 29.529 9.70894 29.151L9.64594 29.214L9.70894 29.277C10.1319 29.655 10.7799 29.682 11.5089 29.268L24.6579 21.798L24.5769 21.717Z" fill="black"/>
<path opacity="0.12" d="M9.64593 29.0881C9.38493 28.8091 9.23193 28.3771 9.23193 27.8281V27.9631C9.23193 28.5211 9.38493 28.9531 9.64593 29.2231L9.70893 29.1601L9.64593 29.0881Z" fill="black"/>
<path opacity="0.12" d="M29.0589 19.17L24.5679 21.717L24.6489 21.798L29.0499 19.296C29.6799 18.936 29.9949 18.468 29.9949 18C29.9499 18.423 29.6349 18.846 29.0589 19.17Z" fill="black"/>
<path opacity="0.25" d="M11.509 6.85794L29.059 16.8299C29.626 17.1539 29.95 17.5679 30.004 17.9999C30.004 17.5319 29.689 17.0549 29.059 16.7039L11.509 6.73194C10.249 6.02094 9.22296 6.61494 9.22296 8.05494V8.18994C9.22296 6.74094 10.258 6.14694 11.509 6.85794Z" fill="white"/>
<defs>
<linearGradient id="paint0_linear_4494_22536" x1="19.8696" y1="7.83872" x2="4.76542" y2="22.9429" gradientUnits="userSpaceOnUse">
<stop stop-color="#00A0FF"/>
<stop offset="0.00657445" stop-color="#00A1FF"/>
<stop offset="0.2601" stop-color="#00BEFF"/>
<stop offset="0.5122" stop-color="#00D2FF"/>
<stop offset="0.7604" stop-color="#00DFFF"/>
<stop offset="1" stop-color="#00E3FF"/>
</linearGradient>
<linearGradient id="paint1_linear_4494_22536" x1="30.7009" y1="18.0013" x2="8.92365" y2="18.0013" gradientUnits="userSpaceOnUse">
<stop stop-color="#FFE000"/>
<stop offset="0.4087" stop-color="#FFBD00"/>
<stop offset="0.7754" stop-color="#FFA500"/>
<stop offset="1" stop-color="#FF9C00"/>
</linearGradient>
<linearGradient id="paint2_linear_4494_22536" x1="22.5941" y1="20.0666" x2="2.11167" y2="40.549" gradientUnits="userSpaceOnUse">
<stop stop-color="#FF3A44"/>
<stop offset="1" stop-color="#C31162"/>
</linearGradient>
<linearGradient id="paint3_linear_4494_22536" x1="6.81744" y1="0.158658" x2="15.9638" y2="9.30491" gradientUnits="userSpaceOnUse">
<stop stop-color="#32A071"/>
<stop offset="0.0685" stop-color="#2DA771"/>
<stop offset="0.4762" stop-color="#15CF74"/>
<stop offset="0.8009" stop-color="#06E775"/>
<stop offset="1" stop-color="#00F076"/>
</linearGradient>
</defs>
</svg>
