<svg width="168" height="32" viewBox="0 0 168 32" fill="none" xmlns="http://www.w3.org/2000/svg">
<path d="M55.8829 16.7001C55.8829 19.9844 54.9725 22.4975 53.1517 24.2394C51.331 25.9723 48.7085 26.8387 45.2843 26.8387H39.7268V6.94256H45.8686C49.0301 6.94256 51.4895 7.79539 53.2469 9.50103C55.0042 11.2067 55.8829 13.6064 55.8829 16.7001ZM52.4588 16.809C52.4588 12.0459 50.2349 9.66434 45.7871 9.66434H42.9743V24.1034H45.2843C50.0673 24.1034 52.4588 21.6719 52.4588 16.809Z" fill="#333C43"/>
<path d="M66.3865 27.1109C64.0493 27.1109 62.2195 26.4305 60.8969 25.0696C59.5834 23.6996 58.9266 21.8171 58.9266 19.4219C58.9266 16.9632 59.5381 15.0308 60.761 13.6245C61.9839 12.2183 63.6643 11.5151 65.8022 11.5151C67.786 11.5151 69.3532 12.1185 70.5036 13.3251C71.6541 14.5318 72.2293 16.1921 72.2293 18.306V20.0343H62.2149C62.2602 21.495 62.6543 22.62 63.3971 23.4093C64.1399 24.1895 65.1862 24.5797 66.5359 24.5797C67.4237 24.5797 68.248 24.498 69.0089 24.3347C69.7789 24.1623 70.6033 23.8811 71.482 23.491V26.0902C70.7029 26.4622 69.9148 26.7253 69.1176 26.8796C68.3205 27.0338 67.4101 27.1109 66.3865 27.1109ZM65.8022 13.9375C64.7876 13.9375 63.9723 14.2596 63.3563 14.9038C62.7494 15.5479 62.3871 16.4869 62.2693 17.7208H69.0905C69.0724 16.4778 68.7734 15.5388 68.1937 14.9038C67.6139 14.2596 66.8167 13.9375 65.8022 13.9375Z" fill="#333C43"/>
<path d="M85.9532 22.5519C85.9532 24.0217 85.4187 25.1512 84.3498 25.9405C83.2809 26.7208 81.75 27.1109 79.757 27.1109C77.7551 27.1109 76.1472 26.807 74.9333 26.1991V23.4365C76.6997 24.253 78.3439 24.6613 79.8658 24.6613C81.8315 24.6613 82.8144 24.0671 82.8144 22.8786C82.8144 22.4975 82.7056 22.18 82.4882 21.9259C82.2708 21.6719 81.913 21.4088 81.4148 21.1366C80.9166 20.8644 80.2236 20.556 79.3358 20.2112C77.6056 19.5398 76.4325 18.8685 75.8165 18.1971C75.2096 17.5257 74.9061 16.6548 74.9061 15.5842C74.9061 14.2959 75.4225 13.2979 76.4552 12.5902C77.4969 11.8735 78.9101 11.5151 80.6946 11.5151C82.4611 11.5151 84.1324 11.8735 85.7086 12.5902L84.6759 14.999C83.0544 14.3276 81.6911 13.992 80.5859 13.992C78.901 13.992 78.0585 14.4728 78.0585 15.4345C78.0585 15.9063 78.276 16.3055 78.7108 16.6321C79.1546 16.9587 80.1149 17.4078 81.5914 17.9794C82.8325 18.4602 83.7338 18.9002 84.2954 19.2994C84.8571 19.6986 85.2738 20.1613 85.5455 20.6875C85.8173 21.2047 85.9532 21.8261 85.9532 22.5519Z" fill="#333C43"/>
<path d="M92.5026 18.8912L94.3098 16.6321L98.8482 11.7873H102.531L96.4839 18.2515L102.911 26.8387H99.1607L94.337 20.2384L92.5841 21.681V26.8387H89.4181V5.66333H92.5841V15.9925L92.4211 18.8912H92.5026Z" fill="#333C43"/>
<path d="M112.545 26.8387H109.297V9.73238H103.455V6.94256H118.388V9.73238H112.545V26.8387Z" fill="#333C43"/>
<path d="M124.299 26.8387H121.105V11.7873H124.299V26.8387ZM120.915 7.79992C120.915 7.22835 121.069 6.78833 121.377 6.47986C121.694 6.17139 122.143 6.01716 122.722 6.01716C123.284 6.01716 123.719 6.17139 124.027 6.47986C124.344 6.78833 124.502 7.22835 124.502 7.79992C124.502 8.34428 124.344 8.77523 124.027 9.09277C123.719 9.40123 123.284 9.55547 122.722 9.55547C122.143 9.55547 121.694 9.40123 121.377 9.09277C121.069 8.77523 120.915 8.34428 120.915 7.79992Z" fill="#333C43"/>
<path d="M141.542 26.8387H138.335V17.5575C138.335 16.4053 138.118 15.5479 137.683 14.9854C137.248 14.4138 136.568 14.128 135.644 14.128C134.413 14.128 133.507 14.5318 132.927 15.3392C132.356 16.1376 132.071 17.4713 132.071 19.3402V26.8387H128.878V11.7873H131.378L131.826 13.7606H131.989C132.406 13.0439 133.008 12.4904 133.797 12.1003C134.594 11.7102 135.468 11.5151 136.419 11.5151C138.729 11.5151 140.26 12.3045 141.012 13.8831H141.229C141.673 13.1391 142.298 12.5585 143.104 12.1412C143.911 11.7238 144.835 11.5151 145.876 11.5151C147.67 11.5151 148.974 11.9688 149.79 12.876C150.614 13.7833 151.026 15.1669 151.026 17.0267V26.8387H147.833V17.5575C147.833 16.4053 147.611 15.5479 147.167 14.9854C146.732 14.4138 146.053 14.128 145.129 14.128C143.888 14.128 142.977 14.5182 142.398 15.2984C141.827 16.0696 141.542 17.2581 141.542 18.8639V26.8387Z" fill="#333C43"/>
<path d="M162.046 27.1109C159.709 27.1109 157.879 26.4305 156.556 25.0696C155.243 23.6996 154.586 21.8171 154.586 19.4219C154.586 16.9632 155.198 15.0308 156.421 13.6245C157.643 12.2183 159.324 11.5151 161.462 11.5151C163.446 11.5151 165.013 12.1185 166.163 13.3251C167.314 14.5318 167.889 16.1921 167.889 18.306V20.0343H157.874C157.92 21.495 158.314 22.62 159.057 23.4093C159.799 24.1895 160.846 24.5797 162.195 24.5797C163.083 24.5797 163.908 24.498 164.668 24.3347C165.438 24.1623 166.263 23.8811 167.141 23.491V26.0902C166.362 26.4622 165.574 26.7253 164.777 26.8796C163.98 27.0338 163.07 27.1109 162.046 27.1109ZM161.462 13.9375C160.447 13.9375 159.632 14.2596 159.016 14.9038C158.409 15.5479 158.047 16.4869 157.929 17.7208H164.75C164.732 16.4778 164.433 15.5388 163.853 14.9038C163.273 14.2596 162.476 13.9375 161.462 13.9375Z" fill="#333C43"/>
<g clip-path="url(#clip0_4494_22501)">
<g clip-path="url(#clip1_4494_22501)">
<path d="M16.0271 2.67212V2.89664C23.2126 2.89664 29.0373 8.73024 29.0373 15.9268C29.0373 23.1234 23.2126 28.957 16.0271 28.957C8.84156 28.957 3.0169 23.1234 3.0169 15.9268H2.79272C2.79272 23.2476 8.7176 29.1815 16.0271 29.1815C23.3366 29.1815 29.2615 23.2476 29.2615 15.9268C29.2602 8.6061 23.3353 2.67212 16.0271 2.67212Z" fill="#55A226" stroke="#55A126" stroke-width="0.2"/>
<path d="M28.8118 15.9269C28.8118 22.9994 23.0874 28.7326 16.0258 28.7326C8.96418 28.7326 3.23974 22.9994 3.23974 15.9269H3.01556C3.01556 23.1235 8.84022 28.9571 16.0258 28.9571C23.2113 28.9571 29.036 23.1235 29.036 15.9269C29.036 8.73033 23.2113 2.89673 16.0258 2.89673V3.12125C23.0887 3.12125 28.8118 8.85448 28.8118 15.9269Z" fill="#5AAB29" stroke="#5AAB29" stroke-width="0.2"/>
<path d="M28.589 15.9268C28.589 22.875 22.9647 28.5079 16.0271 28.5079C9.08948 28.5079 3.46527 22.875 3.46527 15.9268H3.24109C3.24109 22.9992 8.96552 28.7324 16.0271 28.7324C23.0887 28.7324 28.8131 22.9992 28.8131 15.9268C28.8131 8.85432 23.0887 3.12109 16.0271 3.12109V3.34562C22.9647 3.34562 28.589 8.97847 28.589 15.9268Z" fill="#5CB02B" stroke="#5CB02B" stroke-width="0.2"/>
<path d="M16.0271 28.508C22.9648 28.508 28.589 22.8751 28.589 15.9268C28.589 8.97856 22.9648 3.3457 16.0271 3.3457V3.57022C22.8408 3.57022 28.3648 9.10271 28.3648 15.9268C28.3648 22.751 22.8408 28.2835 16.0271 28.2835C9.21345 28.2835 3.68945 22.751 3.68945 15.9268H3.46527C3.46527 22.8751 9.08949 28.508 16.0271 28.508Z" fill="#5EB52B" stroke="#5EB52B" stroke-width="0.2"/>
<path d="M3.68945 15.9269C3.68945 22.7511 9.21345 28.2836 16.0271 28.2836C22.8408 28.2836 28.3648 22.7511 28.3648 15.9269C28.3648 9.10279 22.8408 3.57031 16.0271 3.57031V15.9269H3.68945Z" fill="#5FB92A" stroke="#5FB92A" stroke-width="0.2"/>
<path d="M11.1888 4.55542C6.77912 6.44008 3.68811 10.8209 3.68811 15.9255H16.0258L11.1888 4.55542Z" fill="#ECECEC" stroke="#CECECE" stroke-width="0.2"/>
<path d="M16.0271 15.9269V3.57031C14.3102 3.57031 12.675 3.92162 11.1902 4.55689L16.0271 15.9296V15.9269Z" fill="#FF5715" stroke="#FF5715" stroke-width="0.2"/>
<path d="M10.9264 3.93601L10.8381 3.72998C6.10791 5.75068 2.79272 10.4511 2.79272 15.9268H3.0169C3.0169 10.5436 6.27671 5.92369 10.9264 3.93601Z" fill="#B0B0B0" stroke="#B0B0B0" stroke-width="0.2"/>
<path d="M11.0134 4.14339L10.9264 3.93604C6.27671 5.92239 3.01691 10.5436 3.01691 15.9255H3.24108C3.24108 10.636 6.44418 6.09541 11.0134 4.14339Z" fill="#BBBBBB" stroke="#BBBBBB" stroke-width="0.2"/>
<path d="M3.24109 15.9267H3.46527C3.46527 10.7297 6.61298 6.26834 11.1018 4.34934L11.0134 4.14331C6.44419 6.09533 3.24109 10.636 3.24109 15.9267Z" fill="#CACACA" stroke="#CACACA" stroke-width="0.2"/>
<path d="M11.1888 4.5554L11.1005 4.34937C6.61033 6.26837 3.46393 10.7284 3.46393 15.9268H3.68811C3.68942 10.8222 6.77912 6.44006 11.1888 4.5554Z" fill="#DDDDDD" stroke="#DDDDDD" stroke-width="0.2"/>
<path d="M16.0271 2.89664V2.67212C14.1849 2.67212 12.4324 3.04984 10.8381 3.73001L10.9264 3.93605C12.4917 3.26776 14.2166 2.89664 16.0271 2.89664Z" fill="#F2340F" stroke="#F2340F" stroke-width="0.2"/>
<path d="M11.0135 4.14348C12.5524 3.48577 14.2469 3.12125 16.0258 3.12125V2.89673C14.2152 2.89673 12.4917 3.26785 10.9251 3.93613L11.0135 4.14348Z" fill="#F93A0D" stroke="#F93A0D" stroke-width="0.2"/>
<path d="M16.0271 3.34562V3.12109C14.2482 3.12109 12.5537 3.48561 11.0148 4.14333L11.1031 4.34936C12.6143 3.70353 14.2785 3.34562 16.0271 3.34562Z" fill="#FF3F0B" stroke="#FF3F0B" stroke-width="0.2"/>
<path d="M16.0271 3.57022V3.3457C14.2785 3.3457 12.6143 3.70362 11.1018 4.34945L11.1902 4.55548C12.675 3.92154 14.3102 3.57022 16.0271 3.57022Z" fill="#FF4A12" stroke="#FF4A12" stroke-width="0.2"/>
<path d="M19.0047 8.14514C18.9441 8.12137 18.8781 8.14514 18.8478 8.20193L16.2157 13.1929C16.1432 13.1876 16.072 13.1837 16.0034 13.1837C14.5673 13.1837 13.399 14.3538 13.399 15.7921C13.399 17.1009 14.3656 18.2037 15.6566 18.3754L17.5027 26.2231C17.5186 26.2905 17.5753 26.334 17.6425 26.334C17.6504 26.334 17.6597 26.334 17.6689 26.3314C17.7467 26.3182 17.7981 26.2535 17.7902 26.1756L17.0623 18.1773C18.0039 17.7586 18.6091 16.8275 18.6091 15.7934C18.6091 15.0023 18.257 14.2667 17.6425 13.7688L19.0812 8.29438C19.097 8.23099 19.0654 8.16892 19.0047 8.14514Z" fill="#191919"/>
<path d="M16.0047 17.735C17.0753 17.735 17.9432 16.8657 17.9432 15.7935C17.9432 14.7213 17.0753 13.8521 16.0047 13.8521C14.9341 13.8521 14.0662 14.7213 14.0662 15.7935C14.0662 16.8657 14.9341 17.735 16.0047 17.735Z" fill="#262626"/>
<path d="M16.0047 16.3971C16.3376 16.3971 16.6074 16.1269 16.6074 15.7935C16.6074 15.4602 16.3376 15.1899 16.0047 15.1899C15.6719 15.1899 15.4021 15.4602 15.4021 15.7935C15.4021 16.1269 15.6719 16.3971 16.0047 16.3971Z" fill="#191919"/>
<path d="M16.0047 16.2768C16.2713 16.2768 16.4874 16.0604 16.4874 15.7934C16.4874 15.5265 16.2713 15.3101 16.0047 15.3101C15.7382 15.3101 15.5221 15.5265 15.5221 15.7934C15.5221 16.0604 15.7382 16.2768 16.0047 16.2768Z" fill="#262626"/>
<path fill-rule="evenodd" clip-rule="evenodd" d="M30.1767 15.5821C30.1714 15.3867 30.149 14.9984 30.149 14.9984C29.6584 7.46105 23.2891 1.56934 15.6816 1.75424C12.108 1.8414 8.87322 3.25457 6.43364 5.51167C3.7567 7.98802 2.03713 11.4813 1.88416 15.3537C1.87229 15.6574 1.86834 15.9625 1.87625 16.2702C2.06614 24.0849 8.56728 30.2883 16.37 30.0981C20.4803 29.9978 24.145 28.1435 26.6637 25.2669C28.9265 22.6849 30.2663 19.2801 30.1767 15.5821ZM15.5076 29.1733V27.8463C15.5076 27.5597 15.7396 27.3273 16.0271 27.3273C16.3133 27.3273 16.5454 27.5597 16.5454 27.8463V29.174C20.3233 29.0266 23.6789 27.3009 25.9938 24.6489C27.9267 22.4344 29.132 19.5748 29.2525 16.4472H27.9283C27.6408 16.4459 27.4087 16.2135 27.4087 15.9269C27.4087 15.6403 27.6408 15.4078 27.927 15.4078H29.2527C28.9835 8.46308 23.408 2.94329 16.5454 2.68002V4.01401C16.5454 4.30061 16.3133 4.53306 16.0258 4.53306C15.7396 4.53306 15.5076 4.30061 15.5076 4.01401V2.6798C13.9261 2.74212 12.4195 3.08005 11.0319 3.64682C9.5629 4.24643 8.22706 5.10225 7.0798 6.1575C4.55978 8.47404 2.94439 11.7521 2.80065 15.3933L2.80029 15.4065H4.12463C4.4121 15.4065 4.64419 15.6389 4.64419 15.9269C4.64419 16.2135 4.4121 16.4459 4.12595 16.4459H2.80025C3.06931 23.3905 8.64513 28.9096 15.5076 29.1733Z" fill="#191919"/>
<path d="M26.3112 5.13449C20.5475 -0.364465 11.519 -0.351125 5.76994 5.01309C5.55148 5.2172 5.3357 5.42931 5.12657 5.6481C-0.573185 11.6406 -0.341412 21.1578 5.64073 26.8662C11.6229 32.5732 21.1269 32.3424 26.8253 26.3512C26.9585 26.2111 27.0877 26.0684 27.2143 25.9243C32.5091 19.9158 32.1534 10.7081 26.3112 5.13449ZM26.483 25.2279C26.3564 25.372 26.2286 25.5148 26.0954 25.6548C20.7806 31.2432 11.9159 31.458 6.33605 26.1351C0.75618 20.8122 0.541723 11.9341 5.85652 6.3458C6.06565 6.12569 6.28144 5.91491 6.50122 5.71213C11.8653 0.7508 20.2558 0.752134 25.6158 5.86555C31.0558 11.055 31.3955 19.6223 26.483 25.2279Z" fill="#F4F4F4"/>
<path d="M31.9461 15.6117C31.7325 6.79199 24.394 -0.210443 15.5877 0.00483372C11.5051 0.103887 7.81407 1.73629 5.04877 4.3381C1.84831 7.34934 -0.109946 11.6562 0.00477976 16.3883C0.218408 25.2081 7.55692 32.2092 16.3631 31.9952C20.9706 31.883 25.081 29.8174 27.9228 26.6093C30.5114 23.6866 32.0476 19.8156 31.9461 15.6117ZM27.096 25.8209C24.4559 28.8163 20.6291 30.7485 16.3354 30.8528C8.15824 31.0509 1.34325 24.5503 1.14545 16.3606C1.13753 16.0595 1.14149 15.761 1.15204 15.4651C1.29578 11.4039 3.0826 7.73631 5.87691 5.12921C8.43913 2.73872 11.8479 1.2397 15.6154 1.14857C23.6014 0.954429 30.2859 7.15123 30.7791 15.0702C30.7909 15.2591 30.8002 15.4493 30.8054 15.6408C30.8991 19.529 29.4841 23.1094 27.096 25.8209Z" fill="#E0E0E0"/>
</g>
</g>
<defs>
<clipPath id="clip0_4494_22501">
<rect width="31.9509" height="32" fill="white"/>
</clipPath>
<clipPath id="clip1_4494_22501">
<rect width="31.9509" height="32" fill="white"/>
</clipPath>
</defs>
</svg>
