<svg width="130" height="25" viewBox="0 0 130 25" fill="none" xmlns="http://www.w3.org/2000/svg">
<path d="M43.2427 13.0469C43.2427 15.6128 42.5383 17.5761 41.1293 18.937C39.7204 20.2908 37.6911 20.9677 35.0414 20.9677H30.741V5.42384H35.4935C37.9399 5.42384 39.843 6.09011 41.2029 7.42264C42.5628 8.75518 43.2427 10.6299 43.2427 13.0469ZM40.5931 13.132C40.5931 9.41081 38.8722 7.55023 35.4304 7.55023H33.2539V18.8307H35.0414C38.7425 18.8307 40.5931 16.9311 40.5931 13.132Z" fill="white"/>
<path d="M51.3705 21.1804C49.562 21.1804 48.146 20.6488 47.1226 19.5856C46.1062 18.5153 45.598 17.0445 45.598 15.1733C45.598 13.2525 46.0711 11.7428 47.0174 10.6441C47.9638 9.54549 49.2641 8.99617 50.9183 8.99617C52.4535 8.99617 53.6661 9.46752 54.5564 10.4102C55.4466 11.3529 55.8917 12.65 55.8917 14.3015V15.6518H48.1425C48.1776 16.7929 48.4825 17.6718 49.0573 18.2885C49.6321 18.898 50.4417 19.2028 51.4861 19.2028C52.1731 19.2028 52.8109 19.139 53.3998 19.0114C53.9956 18.8768 54.6335 18.6571 55.3134 18.3523V20.383C54.7106 20.6736 54.1007 20.8791 53.4839 20.9996C52.867 21.1201 52.1626 21.1804 51.3705 21.1804ZM50.9183 10.8887C50.1333 10.8887 49.5024 11.1403 49.0257 11.6435C48.5561 12.1468 48.2757 12.8804 48.1846 13.8443H53.4629C53.4488 12.8733 53.2175 12.1397 52.7689 11.6435C52.3203 11.1403 51.7034 10.8887 50.9183 10.8887Z" fill="white"/>
<path d="M66.5114 17.6187C66.5114 18.7669 66.0978 19.6494 65.2707 20.266C64.4435 20.8756 63.2589 21.1804 61.7168 21.1804C60.1676 21.1804 58.9234 20.9429 57.9841 20.468V18.3097C59.351 18.9477 60.6232 19.2666 61.8009 19.2666C63.322 19.2666 64.0825 18.8024 64.0825 17.8738C64.0825 17.5761 63.9984 17.3281 63.8302 17.1296C63.6619 16.9311 63.3851 16.7256 62.9995 16.5129C62.614 16.3003 62.0777 16.0593 61.3908 15.79C60.052 15.2655 59.1442 14.741 58.6675 14.2164C58.1979 13.6919 57.9631 13.0115 57.9631 12.1751C57.9631 11.1686 58.3626 10.389 59.1617 9.83609C59.9678 9.27614 61.0613 8.99617 62.4423 8.99617C63.8091 8.99617 65.1024 9.27614 66.3221 9.83609L65.523 11.7179C64.2683 11.1934 63.2133 10.9312 62.3581 10.9312C61.0543 10.9312 60.4024 11.3068 60.4024 12.0582C60.4024 12.4267 60.5707 12.7386 60.9071 12.9938C61.2506 13.2489 61.9936 13.5998 63.1362 14.0463C64.0965 14.422 64.794 14.7658 65.2286 15.0776C65.6632 15.3895 65.9856 15.751 66.1959 16.1621C66.4062 16.5661 66.5114 17.0516 66.5114 17.6187Z" fill="white"/>
<path d="M71.5794 14.7587L72.9778 12.9938L76.4897 9.20881H79.3391L74.6601 14.259L79.6335 20.9677H76.7315L72.9988 15.8112L71.6425 16.9382V20.9677H69.1926V4.42444H71.6425V12.4941L71.5163 14.7587H71.5794Z" fill="white"/>
<path d="M87.0883 20.9677H84.5753V7.60339H80.0541V5.42384H91.6095V7.60339H87.0883V20.9677Z" fill="white"/>
<path d="M96.1834 20.9677H93.7124V9.20881H96.1834V20.9677ZM93.5652 6.09365C93.5652 5.64711 93.6844 5.30334 93.9227 5.06235C94.1681 4.82136 94.5151 4.70087 94.9637 4.70087C95.3983 4.70087 95.7347 4.82136 95.9731 5.06235C96.2184 5.30334 96.3411 5.64711 96.3411 6.09365C96.3411 6.51893 96.2184 6.85561 95.9731 7.10369C95.7347 7.34468 95.3983 7.46517 94.9637 7.46517C94.5151 7.46517 94.1681 7.34468 93.9227 7.10369C93.6844 6.85561 93.5652 6.51893 93.5652 6.09365Z" fill="white"/>
<path d="M109.526 20.9677H107.045V13.7167C107.045 12.8166 106.877 12.1468 106.54 11.7073C106.204 11.2608 105.678 11.0375 104.963 11.0375C104.01 11.0375 103.309 11.3529 102.86 11.9837C102.418 12.6075 102.198 13.6494 102.198 15.1095V20.9677H99.7268V9.20881H101.661L102.008 10.7504H102.135C102.457 10.1905 102.923 9.75812 103.533 9.45334C104.15 9.14856 104.826 8.99617 105.562 8.99617C107.35 8.99617 108.534 9.61282 109.116 10.8461H109.284C109.628 10.2649 110.112 9.81128 110.735 9.48524C111.359 9.15919 112.074 8.99617 112.88 8.99617C114.268 8.99617 115.278 9.35057 115.909 10.0594C116.546 10.7682 116.865 11.8491 116.865 13.3021V20.9677H114.395V13.7167C114.395 12.8166 114.223 12.1468 113.879 11.7073C113.543 11.2608 113.017 11.0375 112.302 11.0375C111.342 11.0375 110.637 11.3423 110.189 11.9518C109.747 12.5543 109.526 13.4828 109.526 14.7374V20.9677Z" fill="white"/>
<path d="M125.393 21.1804C123.584 21.1804 122.168 20.6488 121.145 19.5856C120.128 18.5153 119.62 17.0445 119.62 15.1733C119.62 13.2525 120.093 11.7428 121.04 10.6441C121.986 9.54549 123.286 8.99617 124.941 8.99617C126.476 8.99617 127.688 9.46752 128.579 10.4102C129.469 11.3529 129.914 12.65 129.914 14.3015V15.6518H122.165C122.2 16.7929 122.505 17.6718 123.08 18.2885C123.654 18.898 124.464 19.2028 125.508 19.2028C126.195 19.2028 126.833 19.139 127.422 19.0114C128.018 18.8768 128.656 18.6571 129.336 18.3523V20.383C128.733 20.6736 128.123 20.8791 127.506 20.9996C126.889 21.1201 126.185 21.1804 125.393 21.1804ZM124.941 10.8887C124.155 10.8887 123.525 11.1403 123.048 11.6435C122.578 12.1468 122.298 12.8804 122.207 13.8443H127.485C127.471 12.8733 127.24 12.1397 126.791 11.6435C126.343 11.1403 125.726 10.8887 124.941 10.8887Z" fill="white"/>
<g clip-path="url(#clip0_8298_5704)">
<g clip-path="url(#clip1_8298_5704)">
<path d="M12.4019 2.08759V2.26299C17.9621 2.26299 22.4693 6.8205 22.4693 12.4428C22.4693 18.0652 17.9621 22.6227 12.4019 22.6227C6.84165 22.6227 2.33448 18.0652 2.33448 12.4428H2.16101C2.16101 18.1621 6.74574 22.7981 12.4019 22.7981C18.0581 22.7981 22.6428 18.1621 22.6428 12.4428C22.6418 6.72351 18.057 2.08759 12.4019 2.08759Z" fill="#55A226" stroke="#55A126" stroke-width="0.2"/>
<path d="M22.2948 12.4428C22.2948 17.9682 17.8652 22.4473 12.4009 22.4473C6.93653 22.4473 2.50691 17.9682 2.50691 12.4428H2.33344C2.33344 18.0652 6.84061 22.6227 12.4009 22.6227C17.9611 22.6227 22.4683 18.0652 22.4683 12.4428C22.4683 6.8205 17.9611 2.263 12.4009 2.263V2.43841C17.8662 2.43841 22.2948 6.91749 22.2948 12.4428Z" fill="#5AAB29" stroke="#5AAB29" stroke-width="0.2"/>
<path d="M22.1224 12.4428C22.1224 17.8712 17.7703 22.2719 12.4019 22.2719C7.03348 22.2719 2.68141 17.8712 2.68141 12.4428H2.50793C2.50793 17.9682 6.93756 22.4473 12.4019 22.4473C17.8662 22.4473 22.2958 17.9682 22.2958 12.4428C22.2958 6.9175 17.8662 2.43842 12.4019 2.43842V2.61382C17.7703 2.61382 22.1224 7.01449 22.1224 12.4428Z" fill="#5CB02B" stroke="#5CB02B" stroke-width="0.2"/>
<path d="M12.4019 22.2719C17.7703 22.2719 22.1224 17.8712 22.1224 12.4428C22.1224 7.0145 17.7703 2.61383 12.4019 2.61383V2.78924C17.6744 2.78924 21.9489 7.11149 21.9489 12.4428C21.9489 17.7742 17.6744 22.0965 12.4019 22.0965C7.12939 22.0965 2.85487 17.7742 2.85487 12.4428H2.6814C2.6814 17.8712 7.03347 22.2719 12.4019 22.2719Z" fill="#5EB52B" stroke="#5EB52B" stroke-width="0.2"/>
<path d="M2.85492 12.4429C2.85492 17.7742 7.12944 22.0965 12.4019 22.0965C17.6744 22.0965 21.9489 17.7742 21.9489 12.4429C21.9489 7.1115 17.6744 2.78925 12.4019 2.78925V12.4429H2.85492Z" fill="#5FB92A" stroke="#5FB92A" stroke-width="0.2"/>
<path d="M8.658 3.55896C5.24574 5.03135 2.85388 8.45386 2.85388 12.4418H12.4009L8.658 3.55896Z" fill="#ECECEC" stroke="#CECECE" stroke-width="0.2"/>
<path d="M12.4019 12.4429V2.78925C11.0734 2.78925 9.80804 3.06371 8.65906 3.56001L12.4019 12.4449V12.4429Z" fill="#FF5715" stroke="#FF5715" stroke-width="0.2"/>
<path d="M8.45493 3.07502L8.38657 2.91406C4.72634 4.49273 2.16101 8.16494 2.16101 12.4428H2.33448C2.33448 8.23717 4.85695 4.6279 8.45493 3.07502Z" fill="#B0B0B0" stroke="#B0B0B0" stroke-width="0.2"/>
<path d="M8.52227 3.23701L8.45492 3.07501C4.85694 4.62685 2.33447 8.23715 2.33447 12.4418H2.50794C2.50794 8.30938 4.98653 4.76202 8.52227 3.23701Z" fill="#BBBBBB" stroke="#BBBBBB" stroke-width="0.2"/>
<path d="M2.50793 12.4428H2.68141C2.68141 8.38263 5.11714 4.89718 8.59063 3.39796L8.52226 3.237C4.98652 4.76201 2.50793 8.30938 2.50793 12.4428Z" fill="#CACACA" stroke="#CACACA" stroke-width="0.2"/>
<path d="M8.65801 3.55897L8.58965 3.39801C5.11513 4.89723 2.68042 8.38165 2.68042 12.4429H2.85389C2.85491 8.45491 5.24575 5.03136 8.65801 3.55897Z" fill="#DDDDDD" stroke="#DDDDDD" stroke-width="0.2"/>
<path d="M12.4019 2.26299V2.08759C10.9764 2.08759 9.62028 2.38268 8.3866 2.91407L8.45496 3.07503C9.6662 2.55293 11.0009 2.26299 12.4019 2.26299Z" fill="#F2340F" stroke="#F2340F" stroke-width="0.2"/>
<path d="M8.52229 3.23703C9.71311 2.72319 11.0243 2.43841 12.4009 2.43841V2.263C10.9999 2.263 9.66617 2.55294 8.45392 3.07503L8.52229 3.23703Z" fill="#F93A0D" stroke="#F93A0D" stroke-width="0.2"/>
<path d="M12.4019 2.61382V2.43842C11.0254 2.43842 9.71414 2.72319 8.52332 3.23704L8.59168 3.398C9.76108 2.89344 11.0488 2.61382 12.4019 2.61382Z" fill="#FF3F0B" stroke="#FF3F0B" stroke-width="0.2"/>
<path d="M12.4019 2.78924V2.61383C11.0488 2.61383 9.76105 2.89345 8.59064 3.39801L8.659 3.55897C9.80799 3.0637 11.0733 2.78924 12.4019 2.78924Z" fill="#FF4A12" stroke="#FF4A12" stroke-width="0.2"/>
<path d="M14.706 6.36342C14.6591 6.34484 14.608 6.36342 14.5846 6.40778L12.5478 10.307C12.4917 10.3029 12.4366 10.2998 12.3835 10.2998C11.2723 10.2998 10.3682 11.214 10.3682 12.3376C10.3682 13.3601 11.1162 14.2217 12.1152 14.3558L13.5438 20.4868C13.556 20.5394 13.5999 20.5735 13.6519 20.5735C13.658 20.5735 13.6652 20.5735 13.6723 20.5714C13.7325 20.5611 13.7723 20.5106 13.7662 20.4497L13.2029 14.201C13.9315 13.874 14.3999 13.1465 14.3999 12.3386C14.3999 11.7206 14.1274 11.1459 13.6519 10.7569L14.7652 6.48001C14.7774 6.43048 14.7529 6.38199 14.706 6.36342Z" fill="#191919"/>
<path d="M12.3846 13.8554C13.213 13.8554 13.8846 13.1763 13.8846 12.3386C13.8846 11.5009 13.213 10.8218 12.3846 10.8218C11.5562 10.8218 10.8846 11.5009 10.8846 12.3386C10.8846 13.1763 11.5562 13.8554 12.3846 13.8554Z" fill="#262626"/>
<path d="M12.3845 12.8101C12.6421 12.8101 12.8509 12.599 12.8509 12.3386C12.8509 12.0782 12.6421 11.8671 12.3845 11.8671C12.127 11.8671 11.9182 12.0782 11.9182 12.3386C11.9182 12.599 12.127 12.8101 12.3845 12.8101Z" fill="#191919"/>
<path d="M12.3846 12.7163C12.5908 12.7163 12.7581 12.5472 12.7581 12.3386C12.7581 12.1301 12.5908 11.961 12.3846 11.961C12.1783 11.961 12.0111 12.1301 12.0111 12.3386C12.0111 12.5472 12.1783 12.7163 12.3846 12.7163Z" fill="#262626"/>
<path fill-rule="evenodd" clip-rule="evenodd" d="M23.351 12.1735C23.3469 12.0208 23.3296 11.7175 23.3296 11.7175C22.95 5.82895 18.0214 1.22604 12.1346 1.3705C9.36926 1.4386 6.86618 2.54263 4.97841 4.30599C2.90697 6.24064 1.57635 8.96977 1.45798 11.995C1.44879 12.2324 1.44573 12.4707 1.45185 12.7111C1.59879 18.8163 6.62944 23.6627 12.6672 23.5142C15.8479 23.4357 18.6836 21.9871 20.6326 19.7398C22.3836 17.7226 23.4204 15.0626 23.351 12.1735ZM11.9999 22.7916V21.7549C11.9999 21.531 12.1795 21.3494 12.4019 21.3494C12.6234 21.3494 12.803 21.531 12.803 21.7549V22.7922C15.7263 22.677 18.323 21.3288 20.1142 19.2569C21.61 17.5269 22.5426 15.2928 22.6358 12.8494H21.6112C21.3887 12.8484 21.2091 12.6668 21.2091 12.4429C21.2091 12.219 21.3887 12.0374 21.6101 12.0374H22.636C22.4277 6.61178 18.1134 2.29944 12.803 2.09377V3.13595C12.803 3.35985 12.6234 3.54145 12.4009 3.54145C12.1795 3.54145 11.9999 3.35985 11.9999 3.13595V2.09359C10.7762 2.14228 9.6103 2.40629 8.5366 2.84908C7.39986 3.31752 6.36618 3.98613 5.47841 4.81055C3.5284 6.62034 2.27839 9.1813 2.16717 12.026L2.16689 12.0363H3.19167C3.41412 12.0363 3.59372 12.2179 3.59372 12.4429C3.59372 12.6668 3.41412 12.8484 3.19269 12.8484H2.16685C2.37506 18.2739 6.68968 22.5856 11.9999 22.7916Z" fill="#191919"/>
<path d="M20.3598 4.01132C15.8998 -0.284739 8.91351 -0.274316 4.46485 3.91648C4.29581 4.07594 4.12883 4.24165 3.967 4.41258C-0.443521 9.09426 -0.264172 16.5295 4.36487 20.9892C8.99391 25.4478 16.3482 25.2675 20.7577 20.5869C20.8608 20.4775 20.9608 20.3659 21.0587 20.2534C25.1559 15.5592 24.8807 8.36574 20.3598 4.01132ZM20.4928 19.7093C20.3949 19.8219 20.2959 19.9334 20.1929 20.0428C16.0802 24.4087 9.22067 24.5765 4.90291 20.418C0.585155 16.2596 0.419206 9.32355 4.53185 4.95766C4.69367 4.78569 4.86065 4.62102 5.03072 4.4626C9.1815 0.586562 15.6741 0.587605 19.8218 4.58246C24.0313 8.63672 24.2942 15.3299 20.4928 19.7093Z" fill="#F4F4F4"/>
<path d="M24.7202 12.1967C24.5549 5.30625 18.8763 -0.164409 12.0619 0.00377635C8.90274 0.0811621 6.0466 1.35648 3.90679 3.38914C1.43024 5.74167 -0.0850775 9.1064 0.00369862 12.8034C0.169006 19.6938 5.84762 25.1634 12.662 24.9963C16.2273 24.9086 19.4079 23.2948 21.6069 20.7885C23.61 18.5052 24.7988 15.4809 24.7202 12.1967ZM20.9671 20.1726C18.9242 22.5127 15.963 24.0222 12.6405 24.1038C6.31293 24.2585 1.03942 19.18 0.886358 12.7817C0.880235 12.5465 0.883297 12.3133 0.89146 12.0821C1.00269 8.90933 2.38535 6.04399 4.54761 4.0072C6.53028 2.13962 9.16805 0.968518 12.0834 0.897323C18.263 0.745647 23.4355 5.5869 23.8171 11.7736C23.8263 11.9212 23.8335 12.0698 23.8375 12.2194C23.91 15.257 22.8151 18.0543 20.9671 20.1726Z" fill="#E0E0E0"/>
</g>
</g>
<defs>
<clipPath id="clip0_8298_5704">
<rect width="24.7239" height="25" fill="white"/>
</clipPath>
<clipPath id="clip1_8298_5704">
<rect width="24.7239" height="25" fill="white"/>
</clipPath>
</defs>
</svg>
