<svg width="25" height="26" viewBox="0 0 25 26" fill="none" xmlns="http://www.w3.org/2000/svg">
<g clip-path="url(#clip0_4529_1548)">
<g clip-path="url(#clip1_4529_1548)">
<path d="M12.402 2.5874V2.76281C17.9623 2.76281 22.4694 7.32031 22.4694 12.9426C22.4694 18.565 17.9623 23.1225 12.402 23.1225C6.84178 23.1225 2.3346 18.565 2.3346 12.9426H2.16113C2.16113 18.662 6.74586 23.2979 12.402 23.2979C18.0582 23.2979 22.6429 18.662 22.6429 12.9426C22.6419 7.22332 18.0572 2.5874 12.402 2.5874Z" fill="#55A226" stroke="#55A126" stroke-width="0.2"/>
<path d="M22.2954 12.9425C22.2954 18.4679 17.8657 22.947 12.4014 22.947C6.93708 22.947 2.50746 18.4679 2.50746 12.9425H2.33398C2.33398 18.5649 6.84116 23.1224 12.4014 23.1224C17.9617 23.1224 22.4688 18.5649 22.4688 12.9425C22.4688 7.3202 17.9617 2.7627 12.4014 2.7627V2.9381C17.8668 2.9381 22.2954 7.41719 22.2954 12.9425Z" fill="#5AAB29" stroke="#5AAB29" stroke-width="0.2"/>
<path d="M22.1222 12.9424C22.1222 18.3708 17.7702 22.7714 12.4018 22.7714C7.03335 22.7714 2.68128 18.3708 2.68128 12.9424H2.50781C2.50781 18.4678 6.93744 22.9468 12.4018 22.9468C17.8661 22.9468 22.2957 18.4678 22.2957 12.9424C22.2957 7.41707 17.8661 2.93799 12.4018 2.93799V3.1134C17.7702 3.1134 22.1222 7.51406 22.1222 12.9424Z" fill="#5CB02B" stroke="#5CB02B" stroke-width="0.2"/>
<path d="M12.4021 22.7718C17.7705 22.7718 22.1226 18.3711 22.1226 12.9428C22.1226 7.51444 17.7705 3.11377 12.4021 3.11377V3.28918C17.6746 3.28918 21.9491 7.61143 21.9491 12.9428C21.9491 18.2741 17.6746 22.5964 12.4021 22.5964C7.12963 22.5964 2.85511 18.2741 2.85511 12.9428H2.68164C2.68164 18.3711 7.03371 22.7718 12.4021 22.7718Z" fill="#5EB52B" stroke="#5EB52B" stroke-width="0.2"/>
<path d="M2.85547 12.9427C2.85547 18.274 7.12999 22.5963 12.4025 22.5963C17.675 22.5963 21.9495 18.274 21.9495 12.9427C21.9495 7.61131 17.675 3.28906 12.4025 3.28906V12.9427H2.85547Z" fill="#5FB92A" stroke="#5FB92A" stroke-width="0.2"/>
<path d="M8.65764 4.05859C5.24537 5.53099 2.85352 8.9535 2.85352 12.9414H12.4005L8.65764 4.05859Z" fill="#ECECEC" stroke="#CECECE" stroke-width="0.2"/>
<path d="M12.4021 12.9427V3.28906C11.0735 3.28906 9.80817 3.56352 8.65918 4.05982L12.4021 12.9447V12.9427Z" fill="#FF5715" stroke="#FF5715" stroke-width="0.2"/>
<path d="M8.45506 3.57502L8.38669 3.41406C4.72646 4.99273 2.16113 8.66494 2.16113 12.9428H2.3346C2.3346 8.73717 4.85707 5.1279 8.45506 3.57502Z" fill="#B0B0B0" stroke="#B0B0B0" stroke-width="0.2"/>
<path d="M8.52276 3.7367L8.45541 3.57471C4.85743 5.12655 2.33496 8.73685 2.33496 12.9415H2.50843C2.50843 8.80908 4.98702 5.26172 8.52276 3.7367Z" fill="#BBBBBB" stroke="#BBBBBB" stroke-width="0.2"/>
<path d="M2.50781 12.9426H2.68128C2.68128 8.88245 5.11701 5.397 8.59051 3.89778L8.52214 3.73682C4.9864 5.26183 2.50781 8.80919 2.50781 12.9426Z" fill="#CACACA" stroke="#CACACA" stroke-width="0.2"/>
<path d="M8.65826 4.05891L8.58989 3.89795C5.11538 5.39717 2.68066 8.88159 2.68066 12.9428H2.85413C2.85516 8.95485 5.24599 5.5313 8.65826 4.05891Z" fill="#DDDDDD" stroke="#DDDDDD" stroke-width="0.2"/>
<path d="M12.4021 2.76281V2.5874C10.9765 2.5874 9.6204 2.8825 8.38672 3.41388L8.45509 3.57484C9.66632 3.05275 11.001 2.76281 12.4021 2.76281Z" fill="#F2340F" stroke="#F2340F" stroke-width="0.2"/>
<path d="M8.52247 3.73672C9.71329 3.22288 11.0245 2.9381 12.4011 2.9381V2.7627C11 2.7627 9.66635 3.05263 8.4541 3.57473L8.52247 3.73672Z" fill="#F93A0D" stroke="#F93A0D" stroke-width="0.2"/>
<path d="M12.402 3.1134V2.93799C11.0255 2.93799 9.71426 3.22277 8.52344 3.73661L8.59181 3.89757C9.7612 3.39302 11.049 3.1134 12.402 3.1134Z" fill="#FF3F0B" stroke="#FF3F0B" stroke-width="0.2"/>
<path d="M12.4021 3.28918V3.11377C11.049 3.11377 9.76124 3.39339 8.59082 3.89794L8.65919 4.05891C9.80818 3.56364 11.0735 3.28918 12.4021 3.28918Z" fill="#FF4A12" stroke="#FF4A12" stroke-width="0.2"/>
<path d="M14.7059 6.86311C14.659 6.84454 14.608 6.86311 14.5845 6.90748L12.5478 10.8067C12.4916 10.8026 12.4365 10.7995 12.3835 10.7995C11.2723 10.7995 10.3682 11.7136 10.3682 12.8373C10.3682 13.8598 11.1161 14.7214 12.1151 14.8555L13.5437 20.9865C13.5559 21.0391 13.5998 21.0732 13.6519 21.0732C13.658 21.0732 13.6651 21.0732 13.6723 21.0711C13.7325 21.0608 13.7723 21.0103 13.7661 20.9494L13.2029 14.7007C13.9315 14.3737 14.3998 13.6462 14.3998 12.8383C14.3998 12.2203 14.1274 11.6455 13.6519 11.2566L14.7651 6.9797C14.7774 6.93018 14.7529 6.88168 14.7059 6.86311Z" fill="#191919"/>
<path d="M12.3848 14.3553C13.2132 14.3553 13.8848 13.6762 13.8848 12.8385C13.8848 12.0009 13.2132 11.3218 12.3848 11.3218C11.5563 11.3218 10.8848 12.0009 10.8848 12.8385C10.8848 13.6762 11.5563 14.3553 12.3848 14.3553Z" fill="#262626"/>
<path d="M12.3843 13.3098C12.6418 13.3098 12.8506 13.0987 12.8506 12.8382C12.8506 12.5778 12.6418 12.3667 12.3843 12.3667C12.1268 12.3667 11.918 12.5778 11.918 12.8382C11.918 13.0987 12.1268 13.3098 12.3843 13.3098Z" fill="#191919"/>
<path d="M12.3842 13.2157C12.5905 13.2157 12.7577 13.0467 12.7577 12.8381C12.7577 12.6295 12.5905 12.4604 12.3842 12.4604C12.178 12.4604 12.0107 12.6295 12.0107 12.8381C12.0107 13.0467 12.178 13.2157 12.3842 13.2157Z" fill="#262626"/>
<path fill-rule="evenodd" clip-rule="evenodd" d="M23.3506 12.6735C23.3465 12.5208 23.3291 12.2175 23.3291 12.2175C22.9495 6.32895 18.0209 1.72604 12.1342 1.8705C9.36883 1.9386 6.86575 3.04263 4.97798 4.80599C2.90654 6.74064 1.57592 9.46977 1.45755 12.495C1.44837 12.7324 1.4453 12.9707 1.45143 13.2111C1.59837 19.3163 6.62901 24.1627 12.6668 24.0142C15.8474 23.9357 18.6832 22.4871 20.6322 20.2398C22.3832 18.2226 23.42 15.5626 23.3506 12.6735ZM11.9995 23.2916V22.2549C11.9995 22.031 12.1791 21.8494 12.4015 21.8494C12.6229 21.8494 12.8025 22.031 12.8025 22.2549V23.2922C15.7259 23.177 18.3225 21.8288 20.1138 19.7569C21.6095 18.0269 22.5422 15.7928 22.6354 13.3494H21.6107C21.3883 13.3484 21.2087 13.1668 21.2087 12.9429C21.2087 12.719 21.3883 12.5374 21.6097 12.5374H22.6356C22.4272 7.11178 18.1129 2.79944 12.8025 2.59377V3.63595C12.8025 3.85985 12.6229 4.04145 12.4005 4.04145C12.1791 4.04145 11.9995 3.85985 11.9995 3.63595V2.59359C10.7757 2.64228 9.60987 2.90629 8.53617 3.34908C7.39943 3.81752 6.36575 4.48613 5.47799 5.31055C3.52797 7.12034 2.27796 9.6813 2.16674 12.526L2.16646 12.5363H3.19125C3.4137 12.5363 3.59329 12.7179 3.59329 12.9429C3.59329 13.1668 3.4137 13.3484 3.19227 13.3484H2.16643C2.37463 18.7739 6.68925 23.0856 11.9995 23.2916Z" fill="#191919"/>
<path d="M20.3597 4.51132C15.8997 0.215261 8.91332 0.225684 4.46466 4.41648C4.29562 4.57594 4.12864 4.74165 3.96682 4.91258C-0.443704 9.59426 -0.264355 17.0295 4.36468 21.4892C8.99372 25.9478 16.348 25.7675 20.7575 21.0869C20.8606 20.9775 20.9606 20.8659 21.0585 20.7534C25.1557 16.0592 24.8805 8.86574 20.3597 4.51132ZM20.4926 20.2093C20.3947 20.3219 20.2958 20.4334 20.1927 20.5428C16.08 24.9087 9.22048 25.0765 4.90273 20.918C0.584971 16.7596 0.419023 9.82355 4.53166 5.45766C4.69349 5.28569 4.86047 5.12102 5.03054 4.9626C9.18132 1.08656 15.6739 1.0876 19.8216 5.08246C24.0311 9.13672 24.294 15.8299 20.4926 20.2093Z" fill="#F4F4F4"/>
<path d="M24.7202 12.6967C24.5549 5.80625 18.8763 0.335591 12.0619 0.503776C8.90274 0.581162 6.0466 1.85648 3.90679 3.88914C1.43024 6.24167 -0.0850775 9.6064 0.00369862 13.3034C0.169006 20.1938 5.84762 25.6634 12.662 25.4963C16.2273 25.4086 19.4079 23.7948 21.6069 21.2885C23.61 19.0052 24.7988 15.9809 24.7202 12.6967ZM20.9671 20.6726C18.9242 23.0127 15.963 24.5222 12.6405 24.6038C6.31293 24.7585 1.03942 19.68 0.886358 13.2817C0.880235 13.0465 0.883297 12.8133 0.89146 12.5821C1.00269 9.40933 2.38535 6.54399 4.54761 4.5072C6.53028 2.63962 9.16805 1.46852 12.0834 1.39732C18.263 1.24565 23.4355 6.0869 23.8171 12.2736C23.8263 12.4212 23.8335 12.5698 23.8375 12.7194C23.91 15.757 22.8151 18.5543 20.9671 20.6726Z" fill="#E0E0E0"/>
</g>
</g>
<defs>
<clipPath id="clip0_4529_1548">
<rect width="24.7239" height="25" fill="white" transform="translate(0 0.5)"/>
</clipPath>
<clipPath id="clip1_4529_1548">
<rect width="24.7239" height="25" fill="white" transform="translate(0 0.5)"/>
</clipPath>
</defs>
</svg>
