<svg width="64" height="64" viewBox="0 0 64 64" fill="none" xmlns="http://www.w3.org/2000/svg">
<g clip-path="url(#clip0_1144_30)">
<path d="M57.5959 33.0436C57.5967 33.1152 57.5872 33.1866 57.5675 33.2554C57.5632 33.2889 57.555 33.3217 57.5431 33.3532C57.5472 33.3573 57.5431 33.3613 57.539 33.3654C57.5319 33.3952 57.5212 33.4239 57.5069 33.451C57.4899 33.4933 57.4695 33.5341 57.446 33.5732C57.3493 33.7563 57.1992 33.9056 57.0157 34.0009L55.132 35.0683L54.9695 35.162L52.964 36.2945L52.5012 36.5552L43.7655 41.5091L43.5953 41.6068L40.2663 43.493L39.8523 43.7252L39.4423 43.9574L39.2351 44.0756C39.1661 44.1122 39.0933 44.153 39.0202 44.1937C39.0121 44.1978 39.008 44.2019 38.9999 44.2059C38.85 44.2853 38.6903 44.3442 38.5249 44.3811H38.5208C38.3207 44.4336 38.1146 44.4597 37.9077 44.4585C37.5273 44.4617 37.1516 44.3752 36.8107 44.2059C36.7538 44.1734 36.6969 44.1408 36.64 44.1122C36.6197 44.1 36.5994 44.0878 36.575 44.0756L33.9689 42.5968L33.6158 42.3972L33.3639 42.2546L33.3111 42.2261L33.1205 42.1161L33.0921 42.0998L33.0068 42.0509L32.9458 42.0142L32.8808 41.9775L32.7996 41.9327L32.7025 41.8798L32.6537 41.8513L32.6415 41.8431L32.5115 41.7698L32.3977 41.7046L32.3652 41.6883L32.2193 41.6068L24.8602 37.4352L23.3098 36.5552L22.8466 36.2945L20.841 35.162L20.6281 35.0398L18.7973 34.0009C18.6145 33.9046 18.4646 33.7556 18.367 33.5732C18.3435 33.5327 18.3231 33.4905 18.306 33.4469L18.2207 33.0436C18.2203 32.8535 18.27 32.6668 18.3649 32.5022C18.4597 32.3376 18.5963 32.2012 18.7607 32.1066L18.7729 32.0944C18.781 32.0944 18.7891 32.0862 18.7973 32.0862L20.6281 31.0515L20.843 30.9293L29.504 26.0203L30.0643 25.7025L32.2202 24.4844L32.366 24.3989L32.3985 24.3826L32.5123 24.3174L32.6423 24.2441L32.6545 24.2359L32.7033 24.2074L32.8004 24.1544L32.8816 24.1096L32.9466 24.073L33.0076 24.0404L33.0929 23.9915L33.1214 23.9752L33.3119 23.8652L33.3647 23.8367L33.6167 23.6941L33.9697 23.4904L36.5758 22.0157C36.6571 21.9708 36.7343 21.926 36.8115 21.8853C37.1516 21.7165 37.526 21.6287 37.9055 21.6287C38.285 21.6287 38.6594 21.7165 38.9995 21.8853C39.0807 21.926 39.1575 21.9708 39.2347 22.0157L43.5948 24.4844L46.3066 26.0203L54.9695 30.9293L55.132 31.023L57.0157 32.0862C57.0279 32.0862 57.036 32.0944 57.0442 32.0944L57.0523 32.1066C57.2177 32.2003 57.3553 32.3365 57.4508 32.5012C57.5464 32.6658 57.5965 32.8531 57.5959 33.0436Z" fill="#123B6D"/>
<path d="M43.7859 15.1106H32.4092V25.7026L43.7859 36.2946H55.1626V25.7026L43.7859 15.1106Z" fill="#28A8EA"/>
<path d="M43.7867 36.2949V46.8869H32.41L32.2068 46.7158L32.1784 46.6914V46.6873L32.1418 46.6547L32.0687 46.5936L31.9305 46.4755L31.9183 46.4673L31.7396 46.3125L31.7355 46.3084L31.6908 46.2718L31.6705 46.2555L31.6502 46.2351L31.4105 46.0314H31.4064L31.3576 45.9866L31.3251 45.9581L31.3048 45.9418L31.2561 45.9011L31.1342 45.7992L30.8904 45.5996L21.0333 37.513L20.627 37.1789V25.7029H32.41L32.6538 25.931L32.7147 25.988L32.8935 26.1551L33.0194 26.2691L33.1332 26.3751L33.3242 26.5543L33.377 26.6032L33.6289 26.8395L43.7867 36.2949Z" fill="#0364B8"/>
<path d="M32.4109 36.2944H21.0342V46.8865H32.4109V36.2944Z" fill="#14447D"/>
<path d="M55.1648 36.2944H43.7881V46.8865H55.1648V36.2944Z" fill="#0078D4"/>
<path d="M55.1648 15.1106H43.7881V25.7026H55.1648V15.1106Z" fill="#50D9FF"/>
<path d="M32.41 15.1106H20.627V25.7026H32.41V15.1106Z" fill="#0078D4"/>
<path d="M43.7859 25.7029H32.4092V36.2949H43.7859V25.7029Z" fill="#0078D4"/>
<path d="M22.8129 9H52.9775C53.2645 9 53.5488 9.05669 53.814 9.16684C54.0792 9.27698 54.3202 9.43842 54.5232 9.64194C54.7262 9.84546 54.8872 10.0871 54.997 10.353C55.1069 10.6189 55.1634 10.9039 55.1634 11.1917V15.1108H20.627V11.1917C20.627 10.9039 20.6835 10.6189 20.7933 10.353C20.9032 10.0871 21.0642 9.84546 21.2672 9.64194C21.4702 9.43842 21.7112 9.27698 21.9764 9.16684C22.2416 9.05669 22.5258 9 22.8129 9Z" fill="#0358A7"/>
<path opacity="0.1" d="M55.1634 33.3734L38.4811 42.4495L38.4031 42.4947C38.3769 42.5108 38.3497 42.5254 38.3218 42.5383C38.2917 42.5526 38.2605 42.5652 38.2296 42.5762L37.6851 42.2703L37.6173 42.234C37.5848 42.2177 37.5519 42.2006 37.521 42.181L37.4803 42.1558L34.1762 40.3144L33.9064 40.1616L33.685 40.0394L33.1974 39.7644L20.627 32.7578V45.8997H55.1634V33.3734Z" fill="#0A2767"/>
<path opacity="0.1" d="M55.1634 33.7808L38.4811 42.857L38.4031 42.9022C38.3769 42.9183 38.3497 42.9329 38.3218 42.9458C38.2917 42.9601 38.2605 42.9727 38.2296 42.9837L37.6851 42.6777L37.6173 42.6415C37.5848 42.6252 37.5519 42.6081 37.521 42.5885L37.4803 42.5633L34.1762 40.7219L33.9064 40.5691L33.685 40.4469L33.1974 40.1719L20.627 33.1653V46.3071H55.1634V33.7808Z" fill="#0A2767"/>
<path opacity="0.1" d="M55.1634 34.1881L38.4811 43.2642L38.4031 43.3094C38.3769 43.3255 38.3497 43.3401 38.3218 43.353C38.2917 43.3673 38.2605 43.3799 38.2296 43.3909L37.6851 43.085L37.6173 43.0487C37.5848 43.0324 37.5519 43.0153 37.521 42.9957L37.4803 42.9705L34.1762 41.1291L33.9064 40.9763L33.685 40.8541L33.1974 40.5791L20.627 33.5725V46.7143H55.1634V34.1881Z" fill="#0A2767"/>
<path opacity="0.1" d="M55.1634 34.5955L38.4811 43.6717L38.4031 43.7169C38.3769 43.733 38.3497 43.7476 38.3218 43.7605C38.2917 43.7747 38.2605 43.7874 38.2296 43.7984L37.6851 43.4924L37.6173 43.4562C37.5848 43.4399 37.5519 43.4228 37.521 43.4032L37.4803 43.378L34.1762 41.5366L33.9064 41.3838L33.685 41.2616L33.1974 40.9866L20.627 33.98V47.1218H55.1634V34.5955Z" fill="#0A2767"/>
<path d="M57.0489 33.9488L57.0269 33.9606L57.0217 33.9639L39.2252 43.6454C39.1482 43.6931 39.0685 43.7365 38.9867 43.7754C38.6442 43.9369 38.2704 44.0206 37.8919 44.0206C37.5134 44.0206 37.1396 43.9369 36.7971 43.7754C36.7153 43.7364 36.6357 43.693 36.5586 43.6454L37.396 49.6821L55.1347 54.9972C55.6517 54.9995 56.1571 54.8431 56.5828 54.5491C56.8935 54.3384 57.1483 54.055 57.3253 53.7235C57.5022 53.392 57.5961 53.0222 57.5986 52.6462V33.0444C57.5966 33.2308 57.5445 33.4132 57.4478 33.5724C57.351 33.7316 57.2132 33.8616 57.0489 33.9488Z" fill="#1490DF"/>
<path opacity="0.05" d="M39.9189 43.2871L39.257 43.6468C39.1799 43.6944 39.1003 43.7378 39.0185 43.7768C38.6761 43.9383 38.3023 44.022 37.9239 44.022C37.5455 44.022 37.1718 43.9383 36.8293 43.7768C36.7476 43.7378 36.668 43.6944 36.5908 43.6468L37.4282 49.6835L55.167 54.9986C55.6841 55.0008 56.1895 54.8445 56.6155 54.5505C57.0881 54.2264 57.4261 53.7401 57.5658 53.1833L39.9189 43.2871Z" fill="black"/>
<path opacity="0.05" d="M57.4305 53.5727L39.4964 43.5164L39.257 43.6463C39.1799 43.6939 39.1003 43.7372 39.0185 43.7763C38.6761 43.9378 38.3023 44.0215 37.9239 44.0215C37.5455 44.0215 37.1718 43.9378 36.8293 43.7763C36.7476 43.7372 36.668 43.6939 36.5908 43.6463L37.4282 49.683L55.167 54.9981C55.6841 55.0003 56.1895 54.844 56.6155 54.55C56.9706 54.3044 57.2523 53.9666 57.4305 53.5727Z" fill="black"/>
<path opacity="0.05" d="M57.2314 53.9275L39.0766 43.7494L39.0185 43.7779C38.6761 43.9394 38.3023 44.0231 37.9239 44.0231C37.5455 44.0231 37.1718 43.9394 36.8293 43.7779C36.7476 43.7389 36.668 43.6955 36.5908 43.6479L37.4282 49.6846L55.167 54.9997C55.6841 55.002 56.1895 54.8456 56.6155 54.5516C56.857 54.383 57.0658 54.1714 57.2314 53.9275Z" fill="black"/>
<path opacity="0.05" d="M56.9692 54.2478L38.7396 44.0257L38.649 43.9772L38.5775 43.9365C37.9937 44.0903 37.3746 44.0335 36.8283 43.776C36.7466 43.7369 36.667 43.6935 36.5898 43.646L37.4272 49.6826L55.166 54.9978C55.6831 55 56.1885 54.8436 56.6145 54.5497C56.742 54.4606 56.8608 54.3595 56.9692 54.2478Z" fill="black"/>
<path d="M56.6395 54.5295C56.5867 54.5661 56.5339 54.6028 56.4811 54.6354C56.4283 54.668 56.3714 54.6965 56.3145 54.725C56.2495 54.7576 56.1845 54.7861 56.1195 54.8146C56.1154 54.8146 56.1113 54.8187 56.1073 54.8187C56.0341 54.8459 55.961 54.8703 55.8879 54.892C55.8061 54.9205 55.7217 54.941 55.636 54.9531C55.6175 54.9592 55.5984 54.9633 55.5791 54.9654C55.5344 54.9735 55.4897 54.9776 55.4409 54.9817C55.3534 54.9933 55.2651 54.9987 55.1768 54.998H20.6891C20.3684 55.0017 20.0502 54.9421 19.7524 54.8225C19.4547 54.703 19.1834 54.5258 18.954 54.3011C18.7246 54.0763 18.5416 53.8085 18.4155 53.5129C18.2893 53.2173 18.2225 52.8996 18.2188 52.5781V33.0439L18.7795 33.3576L18.7876 33.3617C18.7916 33.3658 18.7916 33.3658 18.7957 33.3658L20.6282 34.3883L24.0493 36.2949L32.4112 40.9554L32.655 41.0939L32.7159 41.1265L32.8947 41.2283L33.0207 41.2976L33.1344 41.3587L33.3254 41.4687L33.3782 41.4972L33.6301 41.6357L36.6531 43.3223C36.7303 43.3712 36.8116 43.416 36.8928 43.4567L37.9005 44.023L38.5384 44.3815H38.5424L41.2525 45.901L41.9798 46.3084L42.7071 46.7158L43.0119 46.8869L43.4344 47.1232L56.6395 54.5295Z" fill="#28A8EA"/>
<path opacity="0.05" d="M33.6303 20.8139V45.1023C33.6306 45.3755 33.5796 45.6464 33.4799 45.9007C33.4242 46.0437 33.3534 46.1803 33.2686 46.3081C33.1713 46.4593 33.0537 46.5963 32.9192 46.7155C32.8538 46.7769 32.7846 46.8341 32.712 46.8866C32.5814 46.9803 32.4411 47.0596 32.2935 47.1229C32.0247 47.2362 31.7359 47.2944 31.4443 47.294H18.1904V45.6645H18.2189V33.0437C18.2185 32.8536 18.2683 32.6667 18.3632 32.5022C18.4581 32.3376 18.5947 32.2011 18.7593 32.1067L18.7715 32.0944C18.7796 32.0944 18.7877 32.0863 18.7958 32.0863L20.6283 31.0515V18.3696H31.4443C31.7864 18.3718 32.1212 18.4691 32.4113 18.6507C32.7786 18.8804 33.0826 19.1988 33.2956 19.5767C33.5085 19.9546 33.6236 20.38 33.6303 20.8139Z" fill="black"/>
<path opacity="0.075" d="M33.3255 20.8549V44.6951C33.3276 45.1224 33.2063 45.5413 32.9761 45.901C32.8816 46.0519 32.7667 46.189 32.6348 46.3083C32.5669 46.3772 32.492 46.4386 32.4113 46.4917C32.3278 46.5551 32.2379 46.6097 32.1432 46.6546C32.1025 46.6791 32.0619 46.6954 32.0213 46.7157C31.754 46.8294 31.4665 46.8876 31.1761 46.8868H18.1904V45.6647H18.2189V33.0439C18.2185 32.8538 18.2683 32.6669 18.3632 32.5024C18.4581 32.3378 18.5947 32.2014 18.7593 32.1069L18.7715 32.0947C18.7796 32.0947 18.7877 32.0865 18.7958 32.0865L20.6283 31.0517V18.4717H31.1396C31.6058 18.4777 32.0555 18.6462 32.4113 18.9483C32.6932 19.18 32.9211 19.4707 33.079 19.8001C33.2369 20.1295 33.3211 20.4895 33.3255 20.8549Z" fill="black"/>
<path opacity="0.1" d="M33.0208 20.8913V44.2874C33.0276 44.866 32.809 45.4243 32.4113 45.8436C32.392 45.8637 32.3717 45.8828 32.3504 45.9007C32.1777 46.0718 31.9753 46.2098 31.7531 46.3081C31.749 46.3081 31.745 46.3121 31.7409 46.3121C31.4784 46.4225 31.1967 46.4793 30.912 46.4792H18.1904V45.6644H18.2189V33.0436C18.2185 32.8535 18.2683 32.6667 18.3632 32.5021C18.4581 32.3375 18.5947 32.2011 18.7593 32.1066L18.7715 32.0944C18.7796 32.0944 18.7877 32.0862 18.7958 32.0862L20.6283 31.0515V18.5732H30.8348C31.135 18.5777 31.4308 18.6461 31.7026 18.7739C31.9744 18.9017 32.216 19.0861 32.4113 19.3147C32.8 19.7478 33.0168 20.3087 33.0208 20.8913Z" fill="black"/>
<path opacity="0.125" d="M32.7161 20.9281V43.8802C32.7185 44.29 32.6134 44.6932 32.4113 45.0494C32.1992 45.4251 31.8733 45.7233 31.4809 45.9009C31.4321 45.9212 31.3793 45.9416 31.3265 45.9579C31.1082 46.0337 30.8789 46.0722 30.6479 46.072H18.1904V45.6646H18.2189V33.0438C18.2185 32.8537 18.2683 32.6669 18.3632 32.5023C18.4581 32.3377 18.5947 32.2013 18.7593 32.1068L18.7715 32.0946C18.7796 32.0946 18.7877 32.0864 18.7958 32.0864L20.6283 31.0517V18.6753H30.5301C30.9147 18.68 31.2912 18.7864 31.6215 18.9838C31.9519 19.1813 32.2243 19.4627 32.4113 19.7997C32.6107 20.1422 32.7159 20.5316 32.7161 20.9281Z" fill="black"/>
<path opacity="0.2" d="M32.4112 20.9688V43.4728C32.435 43.9473 32.2977 44.4159 32.0217 44.8021C31.7457 45.1883 31.3474 45.4694 30.8916 45.5994C30.7247 45.6441 30.5525 45.666 30.3797 45.6645H18.2188V33.0437C18.2183 32.8536 18.2681 32.6668 18.363 32.5022C18.458 32.3377 18.5946 32.2012 18.7591 32.1068L18.7713 32.0945C18.7795 32.0945 18.7876 32.0864 18.7957 32.0864L20.6282 31.0516V18.7771H30.2253C30.8049 18.7773 31.3608 19.0083 31.7707 19.4193C32.1806 19.8303 32.411 20.3876 32.4112 20.9688Z" fill="black"/>
<path d="M30.2243 18.7771H8.18595C6.97868 18.7771 6 19.7584 6 20.9688V43.0654C6 44.2759 6.97868 45.2572 8.18595 45.2572H30.2243C31.4316 45.2572 32.4102 44.2759 32.4102 43.0654V20.9688C32.4102 19.7584 31.4316 18.7771 30.2243 18.7771Z" fill="url(#paint0_linear_1144_30)"/>
<path d="M13.3322 28.4091C13.8361 27.3338 14.6487 26.434 15.6661 25.825C16.7932 25.1781 18.0766 24.8557 19.3749 24.8933C20.5776 24.867 21.7645 25.1727 22.8058 25.7769C23.7854 26.3622 24.5745 27.2201 25.077 28.2465C25.6239 29.3775 25.8965 30.6221 25.8726 31.8788C25.8991 33.1924 25.6185 34.494 25.0531 35.6793C24.5394 36.742 23.7265 37.6306 22.7147 38.2352C21.633 38.8585 20.4015 39.1725 19.1542 39.1429C17.9257 39.1721 16.7126 38.8631 15.647 38.2495C14.6591 37.6633 13.8605 36.8042 13.3468 35.775C12.7966 34.6601 12.5212 33.4292 12.5435 32.1855C12.5189 30.8832 12.7885 29.5921 13.3322 28.4091ZM15.8192 34.4771C16.0878 35.157 16.5429 35.7467 17.132 36.1779C17.7322 36.5987 18.4509 36.8159 19.1831 36.7975C19.9628 36.8282 20.7314 36.604 21.3731 36.1588C21.9552 35.7274 22.3984 35.1344 22.6477 34.453C22.9273 33.6936 23.0651 32.8891 23.054 32.0796C23.0629 31.2625 22.9333 30.4497 22.6709 29.676C22.4393 28.9809 22.0125 28.3675 21.4418 27.9096C20.8167 27.4419 20.0501 27.2044 19.2708 27.237C18.5225 27.2176 17.7872 27.4364 17.1706 27.8619C16.5703 28.2943 16.1052 28.8892 15.8298 29.577C15.2199 31.1527 15.2165 32.8994 15.82 34.4775L15.8192 34.4771Z" fill="white"/>
</g>
<defs>
<linearGradient id="paint0_linear_1144_30" x1="10.5856" y1="17.0486" x2="27.893" y2="46.9461" gradientUnits="userSpaceOnUse">
<stop stop-color="#1784D9"/>
<stop offset="0.5" stop-color="#107AD5"/>
<stop offset="1" stop-color="#0A63C9"/>
</linearGradient>
<clipPath id="clip0_1144_30">
<rect width="64" height="64" fill="white"/>
</clipPath>
</defs>
</svg>
