<svg width="64" height="64" viewBox="0 0 64 64" fill="none" xmlns="http://www.w3.org/2000/svg">
<g clip-path="url(#clip0_138_282)">
<path fill-rule="evenodd" clip-rule="evenodd" d="M25.5218 8.11816C24.8936 8.11875 24.2716 8.24307 23.6915 8.48404C23.1113 8.72501 22.5843 9.0779 22.1406 9.52256C21.6968 9.96722 21.345 10.4949 21.1053 11.0756C20.8655 11.6562 20.7424 12.2784 20.7431 12.9066C20.7425 13.5347 20.8657 14.1568 21.1055 14.7374C21.3453 15.3179 21.6972 15.8455 22.1409 16.2901C22.5847 16.7346 23.1116 17.0875 23.6917 17.3284C24.2718 17.5693 24.8937 17.6936 25.5218 17.6942H30.3004V12.9066C30.3011 12.2784 30.1781 11.6562 29.9383 11.0756C29.6985 10.4949 29.3467 9.96722 28.903 9.52256C28.4592 9.0779 27.9322 8.72501 27.3521 8.48404C26.7719 8.24307 26.15 8.11875 25.5218 8.11816ZM25.5218 20.8871H12.7787C12.1505 20.8876 11.5287 21.0119 10.9486 21.2528C10.3685 21.4938 9.84154 21.8466 9.3978 22.2911C8.95406 22.7357 8.60223 23.2633 8.36239 23.8439C8.12256 24.4244 7.99942 25.0465 8 25.6746C7.9993 26.3028 8.12236 26.925 8.36214 27.5056C8.60192 28.0863 8.95373 28.614 9.39749 29.0587C9.84124 29.5033 10.3682 29.8562 10.9484 30.0972C11.5285 30.3381 12.1505 30.4625 12.7787 30.4631H25.5218C26.15 30.4625 26.7719 30.3381 27.3521 30.0972C27.9322 29.8562 28.4592 29.5033 28.903 29.0587C29.3467 28.614 29.6985 28.0863 29.9383 27.5056C30.1781 26.925 30.3011 26.3028 30.3004 25.6746C30.301 25.0465 30.1779 24.4244 29.9381 23.8439C29.6982 23.2633 29.3464 22.7357 28.9027 22.2911C28.4589 21.8466 27.932 21.4938 27.3519 21.2528C26.7718 21.0119 26.1499 20.8876 25.5218 20.8871Z" fill="#36C5F0"/>
<path fill-rule="evenodd" clip-rule="evenodd" d="M55.7868 25.6746C55.7874 25.0465 55.6642 24.4244 55.4244 23.8439C55.1845 23.2633 54.8327 22.7357 54.389 22.2911C53.9452 21.8466 53.4183 21.4938 52.8382 21.2528C52.2581 21.0119 51.6362 20.8876 51.0081 20.8871C50.38 20.8876 49.7581 21.0119 49.178 21.2528C48.5979 21.4938 48.071 21.8466 47.6272 22.2911C47.1835 22.7357 46.8317 23.2633 46.5918 23.8439C46.352 24.4244 46.2289 25.0465 46.2294 25.6746V30.4631H51.0081C51.6363 30.4625 52.2582 30.3381 52.8384 30.0972C53.4185 29.8562 53.9455 29.5033 54.3893 29.0587C54.833 28.614 55.1849 28.0863 55.4246 27.5056C55.6644 26.925 55.7875 26.3028 55.7868 25.6746ZM43.0437 25.6746V12.9066C43.0444 12.2784 42.9213 11.6562 42.6815 11.0756C42.4417 10.4949 42.0899 9.96722 41.6462 9.52256C41.2024 9.0779 40.6754 8.72501 40.0953 8.48404C39.5151 8.24307 38.8932 8.11875 38.265 8.11816C37.6368 8.11875 37.0149 8.24307 36.4347 8.48404C35.8546 8.72501 35.3276 9.0779 34.8838 9.52256C34.4401 9.96722 34.0882 10.4949 33.8485 11.0756C33.6087 11.6562 33.4856 12.2784 33.4863 12.9066V25.6746C33.4856 26.3028 33.6087 26.925 33.8485 27.5056C34.0882 28.0863 34.4401 28.614 34.8838 29.0587C35.3276 29.5033 35.8546 29.8562 36.4347 30.0972C37.0149 30.3381 37.6368 30.4625 38.265 30.4631C38.8932 30.4625 39.5151 30.3381 40.0953 30.0972C40.6754 29.8562 41.2024 29.5033 41.6462 29.0587C42.0899 28.614 42.4417 28.0863 42.6815 27.5056C42.9213 26.925 43.0444 26.3028 43.0437 25.6746Z" fill="#2EB67D"/>
<path fill-rule="evenodd" clip-rule="evenodd" d="M38.265 55.9999C38.8932 55.9993 39.5151 55.875 40.0953 55.634C40.6754 55.3931 41.2024 55.0402 41.6462 54.5955C42.0899 54.1509 42.4417 53.6231 42.6815 53.0425C42.9213 52.4619 43.0444 51.8397 43.0437 51.2115C43.0442 50.5833 42.9211 49.9613 42.6813 49.3807C42.4414 48.8002 42.0896 48.2726 41.6459 47.828C41.2021 47.3834 40.6752 47.0306 40.0951 46.7897C39.515 46.5488 38.8931 46.4245 38.265 46.4239H33.4863V51.2115C33.4856 51.8397 33.6087 52.4619 33.8485 53.0425C34.0882 53.6231 34.4401 54.1509 34.8838 54.5955C35.3276 55.0402 35.8546 55.3931 36.4347 55.634C37.0149 55.875 37.6368 55.9993 38.265 55.9999ZM38.265 43.231H51.0081C51.6362 43.2304 52.2581 43.1062 52.8382 42.8652C53.4183 42.6243 53.9452 42.2715 54.389 41.8269C54.8327 41.3824 55.1845 40.8548 55.4244 40.2742C55.6642 39.6937 55.7874 39.0716 55.7868 38.4435C55.7875 37.8153 55.6644 37.1931 55.4246 36.6124C55.1849 36.0318 54.833 35.5041 54.3893 35.0594C53.9455 34.6148 53.4185 34.2619 52.8384 34.0209C52.2582 33.7799 51.6363 33.6556 51.0081 33.655H38.265C37.6368 33.6556 37.0149 33.7799 36.4347 34.0209C35.8546 34.2619 35.3276 34.6148 34.8838 35.0594C34.4401 35.5041 34.0882 36.0318 33.8485 36.6124C33.6087 37.1931 33.4856 37.8153 33.4863 38.4435C33.4857 39.0716 33.6089 39.6937 33.8487 40.2742C34.0886 40.8548 34.4404 41.3824 34.8841 41.8269C35.3279 42.2715 35.8548 42.6243 36.4349 42.8652C37.015 43.1062 37.6369 43.2304 38.265 43.231Z" fill="#ECB22E"/>
<path fill-rule="evenodd" clip-rule="evenodd" d="M8 38.4435C7.99942 39.0716 8.12256 39.6937 8.3624 40.2742C8.60223 40.8548 8.95406 41.3824 9.3978 41.8269C9.84154 42.2715 10.3685 42.6243 10.9486 42.8652C11.5287 43.1062 12.1505 43.2304 12.7787 43.231C13.4068 43.2304 14.0287 43.1062 14.6088 42.8652C15.1888 42.6243 15.7158 42.2715 16.1595 41.8269C16.6033 41.3824 16.9551 40.8548 17.1949 40.2742C17.4348 39.6937 17.5579 39.0716 17.5573 38.4435V33.655H12.7787C12.1504 33.6556 11.5284 33.78 10.9482 34.021C10.368 34.262 9.84094 34.615 9.39717 35.0597C8.95341 35.5045 8.60161 36.0323 8.36188 36.6131C8.12215 37.1938 7.99919 37.8161 8 38.4444V38.4435ZM20.7431 38.4435V51.2115C20.7424 51.8397 20.8655 52.4619 21.1053 53.0425C21.345 53.6231 21.6968 54.1509 22.1406 54.5955C22.5844 55.0402 23.1113 55.3931 23.6915 55.634C24.2716 55.875 24.8936 55.9993 25.5218 55.9999C26.15 55.9993 26.7719 55.875 27.3521 55.634C27.9322 55.3931 28.4592 55.0402 28.903 54.5955C29.3467 54.1509 29.6985 53.6231 29.9383 53.0425C30.1781 52.4619 30.3011 51.8397 30.3004 51.2115V38.4444C30.3011 37.8162 30.1781 37.194 29.9383 36.6133C29.6985 36.0327 29.3467 35.505 28.903 35.0603C28.4592 34.6157 27.9322 34.2628 27.3521 34.0218C26.7719 33.7808 26.15 33.6565 25.5218 33.6559C24.8936 33.6565 24.2716 33.7808 23.6915 34.0218C23.1113 34.2628 22.5844 34.6157 22.1406 35.0603C21.6968 35.505 21.345 36.0327 21.1053 36.6133C20.8655 37.194 20.7424 37.8162 20.7431 38.4444" fill="#E01E5A"/>
</g>
<defs>
<clipPath id="clip0_138_282">
<rect width="48" height="48" fill="white" transform="translate(8 8)"/>
</clipPath>
</defs>
</svg>
